<svg width="167" height="41" viewBox="0 0 167 41" fill="none" xmlns="http://www.w3.org/2000/svg">
<path d="M18.6346 21.9049C18.4877 22.3247 18.2679 22.7152 17.9854 23.0584C17.728 23.3643 17.4106 23.6139 17.0529 23.7918C16.6996 23.9623 16.3119 24.0493 15.9198 24.0462C15.5751 24.0627 15.2335 23.974 14.9401 23.7918C14.6772 23.6222 14.4555 23.3958 14.2909 23.1294C14.1293 22.8671 14.0079 22.582 13.9309 22.2835C13.8547 22.014 13.815 21.7355 13.8129 21.4554C13.8129 18.8113 13.8129 16.5872 13.8129 14.7712C13.8129 12.9553 13.8129 11.4765 13.8129 10.329C13.8129 9.18142 13.8129 8.33556 13.8424 7.79136C13.8719 7.24717 13.8424 6.93367 13.8424 6.85085C13.8706 6.51957 13.8607 6.18613 13.8129 5.85711C13.7981 5.728 13.7351 5.60928 13.6366 5.52479C13.5381 5.44031 13.4113 5.39631 13.2818 5.40164C13.1979 5.39985 13.115 5.42022 13.0414 5.46072C12.9679 5.50121 12.9062 5.5604 12.8627 5.63233C12.7492 5.81247 12.673 6.01362 12.6385 6.22385C12.5858 6.46072 12.5601 6.70281 12.5618 6.9455V8.72004C12.5618 9.31156 12.5618 10.0983 12.5618 11.0329C12.5618 11.9675 12.5618 13.0263 12.5618 14.2093V17.853C12.5545 18.4867 12.4893 19.1183 12.367 19.74C12.2405 20.4236 12.0012 21.0813 11.6588 21.6861C11.3061 22.2986 10.8124 22.8178 10.2188 23.2003C9.49094 23.6287 8.65394 23.8344 7.81093 23.7918C6.6319 23.8161 5.47196 23.491 4.4765 22.8573C3.50691 22.2154 2.68421 21.3747 2.06272 20.3906C1.38385 19.3131 0.889187 18.1296 0.59911 16.8889C0.277115 15.5564 0.114658 14.1902 0.115175 12.8192C0.124677 11.3351 0.322998 9.85816 0.70534 8.42428C1.04738 7.04597 1.62439 5.73722 2.41092 4.55577C3.15192 3.43462 4.12891 2.48972 5.27322 1.78748C6.47629 1.06778 7.85596 0.699024 9.25683 0.722757C9.80347 0.715169 10.3477 0.797087 10.868 0.965278C11.2952 1.10535 11.7051 1.29389 12.0896 1.52722C12.3913 1.70406 12.6706 1.91656 12.9218 2.16014C13.0703 2.30425 13.2065 2.46056 13.329 2.62744C13.4252 2.7368 13.4778 2.87793 13.4765 3.02375C13.4765 3.20121 13.3998 3.29585 13.2345 3.29585C13.1451 3.28389 13.0591 3.25356 12.9819 3.20673C12.9048 3.15991 12.8381 3.09762 12.786 3.02375C12.2428 2.44312 11.5719 1.99754 10.8267 1.72242C10.2155 1.50902 9.57356 1.39713 8.92634 1.39117C7.66246 1.36074 6.41599 1.69103 5.33224 2.34351C4.30582 2.98071 3.4363 3.8421 2.78862 4.86336C2.09173 5.95402 1.58113 7.15349 1.2778 8.41245C0.947898 9.73769 0.781408 11.0985 0.78206 12.4643C0.778558 13.7935 0.935101 15.1182 1.24829 16.4097C1.52973 17.6159 2.00406 18.7685 2.65288 19.8228C3.23407 20.7984 4.02177 21.6344 4.96043 22.2717C5.90414 22.8933 7.01226 23.2168 8.14142 23.2003C8.86992 23.2304 9.58849 23.0228 10.1893 22.6088C10.6971 22.2451 11.1151 21.7696 11.4109 21.2188C11.708 20.6657 11.9077 20.0653 12.0011 19.4442C12.0942 18.895 12.1435 18.3392 12.1486 17.7821V15.5106C12.1486 14.8718 12.1486 14.1679 12.1486 13.393C12.1486 12.6181 12.1486 11.861 12.1486 11.1275C12.1486 10.394 12.1486 9.70196 12.1782 9.06904C12.2077 8.43611 12.1782 7.93333 12.1782 7.5725C12.1841 6.76464 12.2751 5.95967 12.4496 5.17095C12.5913 4.63859 12.8923 4.36649 13.3526 4.36649C13.456 4.36447 13.5578 4.39242 13.6457 4.44699C13.7337 4.50155 13.804 4.58041 13.8483 4.67408C13.9712 4.8999 14.0588 5.14328 14.108 5.39573C14.1687 5.69387 14.2042 5.99662 14.2142 6.30075C14.2142 6.62608 14.2142 6.89226 14.2142 7.11704V20.0653C14.2142 20.4261 14.2142 20.8047 14.2614 21.1951C14.2863 21.5626 14.3618 21.9249 14.4857 22.2717C14.599 22.5782 14.7854 22.8524 15.0287 23.0702C15.32 23.2998 15.6857 23.4135 16.0555 23.3896C16.324 23.3835 16.5894 23.3315 16.8405 23.2358C17.132 23.1287 17.399 22.9637 17.6254 22.7508C17.8863 22.4964 18.0878 22.1874 18.2155 21.8458C18.413 21.4083 18.5213 20.9357 18.5342 20.4557V20.1245C18.5342 19.9825 18.5814 19.9115 18.6818 19.9115H18.8057C18.847 19.9115 18.8647 19.9115 18.8647 19.9529V20.4084C18.8763 20.9169 18.7984 21.4235 18.6346 21.9049Z" fill="#142466" stroke="#142466" stroke-width="0.2304" stroke-miterlimit="10"/>
<path d="M29.2891 22.9846C29.0409 23.2916 28.7255 23.5373 28.3673 23.7024C28.009 23.8676 27.6177 23.9478 27.2235 23.9369C26.7583 23.9641 26.2972 23.8351 25.9134 23.5702C25.6054 23.3348 25.3701 23.017 25.2347 22.6533C25.101 22.2587 25.0293 21.8456 25.0222 21.4289C25.0222 20.9853 25.0222 20.5594 25.0222 20.1571V19.187C25.0309 18.9947 24.9793 18.8044 24.8747 18.6429C24.8395 18.5836 24.7905 18.5339 24.7319 18.4978C24.6733 18.4617 24.6069 18.4405 24.5383 18.4358C24.4546 18.4461 24.375 18.4775 24.3068 18.5272C24.2387 18.5769 24.1843 18.6431 24.1488 18.7197C24.0051 19.026 23.9422 19.3641 23.9658 19.7017V21.8784C23.9917 22.1772 23.9523 22.478 23.8503 22.7599C23.7484 23.0419 23.5864 23.2982 23.3757 23.511C23.0161 23.8406 22.5469 24.0241 22.0596 24.0256C21.5564 24.0245 21.0703 23.8418 20.6904 23.511C20.4841 23.3212 20.3236 23.0866 20.2214 22.8252C20.1191 22.5638 20.0777 22.2825 20.1003 22.0027V18.8854C20.1074 18.7942 20.0947 18.7026 20.0631 18.6168C20.0315 18.5311 19.9818 18.4532 19.9173 18.3885C19.8665 18.3364 19.806 18.295 19.7391 18.2666C19.6722 18.2381 19.6004 18.2233 19.5278 18.2229C19.4506 18.2216 19.3742 18.2373 19.3038 18.269C19.2334 18.3007 19.1708 18.3476 19.1206 18.4062C18.9981 18.5598 18.939 18.7545 18.9553 18.9504V19.9738C18.9553 20.1394 18.8963 20.2163 18.7724 20.2163C18.6484 20.2163 18.6248 20.1394 18.6248 19.9738V19.0628C18.6137 18.6862 18.6738 18.3109 18.8019 17.9567C18.8695 17.8097 18.982 17.6881 19.1231 17.6094C19.2642 17.5308 19.4266 17.4991 19.5868 17.519C19.7514 17.4998 19.9178 17.5358 20.0598 17.6214C20.2018 17.707 20.3115 17.8374 20.3717 17.9922C20.5037 18.3537 20.5657 18.7372 20.5547 19.122V21.9021C20.5419 22.1313 20.5827 22.3602 20.6739 22.5708C20.7651 22.7813 20.9042 22.9676 21.0799 23.1147C21.3986 23.3805 21.7985 23.5287 22.213 23.5347C22.5577 23.5342 22.8899 23.4056 23.1455 23.1739C23.2827 23.018 23.3843 22.8341 23.4435 22.6349C23.5026 22.4357 23.5177 22.226 23.4878 22.0204V19.5834C23.4858 19.1725 23.5455 18.7638 23.6648 18.3708C23.705 18.1952 23.8058 18.0395 23.9494 17.9312C24.0931 17.8229 24.2703 17.7691 24.4498 17.7792C24.6144 17.76 24.7807 17.7961 24.9227 17.8817C25.0648 17.9673 25.1745 18.0977 25.2347 18.2525C25.3666 18.614 25.4287 18.9974 25.4176 19.3822V20.1394C25.4157 20.564 25.4354 20.9885 25.4767 21.4111C25.5058 21.7694 25.5915 22.1208 25.7304 22.4522C25.8548 22.7361 26.0601 22.9769 26.3206 23.1443C26.6448 23.3308 27.0153 23.4211 27.3888 23.4045C27.6516 23.3992 27.9114 23.3472 28.156 23.2508C28.4409 23.1422 28.6987 22.9726 28.9114 22.7539C29.1644 22.4864 29.3647 22.1733 29.5016 21.8311C29.6704 21.3938 29.7526 20.9277 29.7435 20.4588V20.1276C29.7435 19.9856 29.8026 19.9146 29.9206 19.9146C30.0209 19.9146 30.074 19.9146 30.074 19.9738V20.2754C30.142 21.2433 29.8637 22.2037 29.2891 22.9846Z" fill="#142466" stroke="#142466" stroke-width="0.2304" stroke-miterlimit="10"/>
<path d="M36.3396 21.8471C36.1932 22.2761 35.9735 22.6764 35.6904 23.0301C35.4372 23.3504 35.1169 23.6109 34.752 23.7932C34.4108 23.9621 34.035 24.0492 33.6543 24.0475C33.3488 24.0883 33.038 24.0468 32.7538 23.9272C32.4695 23.8077 32.2222 23.6144 32.0373 23.3673C31.7503 22.8449 31.6115 22.2537 31.636 21.6578C31.6364 21.1828 31.6699 20.7085 31.7363 20.2382C31.8071 19.7354 31.8956 19.2444 31.996 18.7594C31.996 18.7002 31.996 18.6706 31.996 18.6706C31.8429 18.7175 31.6838 18.7414 31.5238 18.7416C31.3173 18.7416 31.0989 18.7416 30.8806 18.7416C30.6622 18.7416 30.4615 18.7416 30.2904 18.7416H30.0012C29.9422 18.7416 29.9127 18.783 29.9127 18.8599L30.0366 19.2858C30.0936 19.5121 30.1233 19.7445 30.1251 19.9779C30.129 20.0068 30.1262 20.0362 30.1169 20.0638C30.1076 20.0914 30.0921 20.1165 30.0715 20.1371C30.051 20.1577 30.0259 20.1733 29.9984 20.1826C29.9708 20.1919 29.9415 20.1947 29.9127 20.1908C29.8301 20.1908 29.7947 20.1908 29.7947 20.1021C29.7949 19.904 29.7791 19.7062 29.7474 19.5106C29.6959 19.2709 29.5976 19.0437 29.4583 18.8422C29.4086 18.7516 29.3377 18.6745 29.2517 18.6174L28.9802 18.4695C28.9024 18.424 28.8309 18.3683 28.7678 18.3039C28.7376 18.2715 28.7142 18.2333 28.6989 18.1916C28.6837 18.15 28.677 18.1057 28.6792 18.0614C28.6797 17.977 28.6999 17.894 28.7383 17.8189C28.7542 17.7836 28.7799 17.7537 28.8123 17.7327C28.8448 17.7117 28.8826 17.7005 28.9212 17.7006C28.9645 17.6985 29.0078 17.7053 29.0484 17.7205C29.089 17.7358 29.126 17.7592 29.1573 17.7893C29.3709 17.9345 29.6155 18.0276 29.8714 18.0614C30.1547 18.1027 30.4408 18.1225 30.7271 18.1205C30.9691 18.1205 31.211 18.1205 31.453 18.1205H32.0432C32.1666 18.1139 32.2898 18.1362 32.4032 18.1856C32.4858 18.2211 32.5271 18.3217 32.5271 18.4873C32.4983 18.9272 32.417 19.3621 32.2852 19.7827C32.1251 20.3606 32.0437 20.9575 32.0432 21.5572C32.029 22.033 32.1608 22.5017 32.4209 22.9C32.5999 23.1087 32.8262 23.2713 33.0809 23.3742C33.3356 23.4771 33.6111 23.5174 33.8845 23.4915C34.1473 23.4862 34.4071 23.4341 34.6517 23.3377C34.9366 23.2291 35.1944 23.0596 35.4071 22.8408C35.6623 22.575 35.8628 22.2614 35.9973 21.9181C36.1712 21.476 36.2535 21.003 36.2393 20.528V20.1258C36.2393 19.9838 36.3042 19.9128 36.4222 19.9128C36.5402 19.9128 36.5757 19.9128 36.5757 19.972V20.2737C36.5848 20.8076 36.505 21.3394 36.3396 21.8471Z" fill="#142466" stroke="#142466" stroke-width="0.2304" stroke-miterlimit="10"/>
<path d="M44.929 19.9736C45.0055 20.8756 44.7353 21.7728 44.1736 22.4816C43.9586 22.7264 43.6946 22.923 43.3986 23.0586C43.1027 23.1942 42.7816 23.2656 42.4562 23.2683C41.7442 23.2666 41.0616 22.984 40.5559 22.4816C40.3218 22.8793 40.0035 23.2205 39.6234 23.4813C39.2412 23.7432 38.7881 23.8815 38.3251 23.8776C37.9957 23.9032 37.6653 23.8444 37.3649 23.7068C37.0645 23.5692 36.8039 23.3572 36.6077 23.0909C36.2385 22.5478 36.0486 21.9023 36.0647 21.2454C36.0745 20.3665 36.339 19.5095 36.826 18.7787C37.0607 18.4373 37.3643 18.1491 37.7172 17.9329C38.0756 17.7246 38.4832 17.6163 38.8975 17.6194C39.227 17.5921 39.558 17.6501 39.8588 17.7878C40.1595 17.9256 40.4199 18.1385 40.6149 18.4061C40.9847 18.9467 41.1747 19.5905 41.1579 20.2457C41.1563 20.8939 41.0133 21.5339 40.7388 22.1208C40.9513 22.3588 41.2114 22.5493 41.5022 22.6798C41.7931 22.8102 42.1081 22.8778 42.4267 22.8779C42.7082 22.8758 42.9864 22.817 43.2449 22.7053C43.5034 22.5935 43.7369 22.431 43.9316 22.2273C44.1768 21.9395 44.3621 21.6054 44.4766 21.2448C44.5912 20.8842 44.6326 20.5043 44.5985 20.1274C44.5985 19.9677 44.6693 19.8849 44.811 19.8849C44.9526 19.8849 44.929 19.9145 44.929 19.9736ZM40.2844 22.245C39.6485 21.4577 39.3081 20.4719 39.3224 19.459C39.3245 19.0945 39.3541 18.7306 39.411 18.3706C39.1889 18.2855 38.9522 18.2452 38.7146 18.2523C38.384 18.2459 38.0572 18.3232 37.7644 18.4771C37.4981 18.6227 37.2666 18.8245 37.0857 19.0686C36.9046 19.3263 36.7671 19.612 36.6785 19.9144C36.5889 20.2239 36.5432 20.5445 36.5428 20.8668C36.5379 21.4627 36.7127 22.0462 37.0444 22.5408C37.207 22.7842 37.4304 22.9806 37.6924 23.1103C37.9545 23.2401 38.2459 23.2986 38.5375 23.2802C38.9041 23.2903 39.2655 23.1915 39.5762 22.9962C39.8679 22.805 40.1105 22.5477 40.2844 22.245ZM40.7093 20.5829C40.7124 20.1924 40.634 19.8055 40.4792 19.4472C40.341 19.1078 40.1173 18.8103 39.83 18.5835C39.7957 18.7231 39.7759 18.8658 39.771 19.0094V19.3998C39.726 20.2662 39.9826 21.1213 40.4969 21.8191C40.6444 21.424 40.7164 21.0047 40.7093 20.5829Z" fill="#142466" stroke="#142466" stroke-width="0.2304" stroke-miterlimit="10"/>
<path d="M53.289 19.9736C53.3225 20.3532 53.2808 20.7357 53.1664 21.0991C53.052 21.4625 52.867 21.7996 52.6221 22.0912C52.4249 22.3006 52.1871 22.4675 51.9232 22.5814C51.6594 22.6953 51.375 22.754 51.0877 22.7537C50.6736 22.7547 50.2666 22.6466 49.9074 22.4402C49.51 22.2137 49.1706 21.8978 48.9159 21.5174C48.758 21.8498 48.6258 22.1939 48.5205 22.5467C48.4116 22.8912 48.2327 23.2094 47.9952 23.4813C47.915 23.5776 47.8161 23.6566 47.7045 23.7135C47.5929 23.7704 47.471 23.8041 47.346 23.8125C46.9447 23.8125 46.6792 23.5108 46.5611 22.9075L45.9001 19.2815C45.8175 18.8142 45.6464 18.5835 45.3867 18.5835C45.3225 18.5849 45.2597 18.6024 45.204 18.6345C45.1483 18.6665 45.1016 18.712 45.068 18.7669C44.9687 18.9193 44.9211 19.0998 44.9323 19.2815V19.9736C44.9323 20.1392 44.8733 20.2161 44.7493 20.2161C44.6254 20.2161 44.6018 20.1392 44.6018 19.9736V19.2815C44.5912 18.9325 44.6748 18.5872 44.8437 18.2818C44.9049 18.1592 44.9994 18.0563 45.1164 17.9852C45.2333 17.914 45.3679 17.8774 45.5047 17.8796C45.6135 17.879 45.7196 17.9139 45.8068 17.979C45.8941 18.0441 45.958 18.1358 45.9887 18.2404C46.1056 18.5436 46.1965 18.8563 46.2601 19.175L46.8916 22.4106C46.9939 22.8956 47.1906 23.1382 47.4818 23.1382C47.7238 23.1382 47.9185 22.9785 48.072 22.6531C48.1392 22.4516 48.218 22.2541 48.308 22.0616C48.432 21.8013 48.55 21.4701 48.6739 21.1566C48.3761 20.5229 48.2306 19.828 48.249 19.1277C48.2402 18.6941 48.3504 18.2665 48.5677 17.8914C48.6445 17.729 48.7657 17.5917 48.9171 17.4954C49.0686 17.3991 49.2441 17.3478 49.4234 17.3472C49.5141 17.3458 49.6038 17.3654 49.6857 17.4044C49.7676 17.4434 49.8394 17.5007 49.8956 17.572C50.0366 17.7583 50.1058 17.9894 50.0903 18.2227C50.0709 18.4805 50.0193 18.7348 49.9369 18.9798C49.9369 18.9798 49.8543 19.2223 49.6831 19.6601C49.512 20.0978 49.3231 20.5473 49.0929 21.0324C49.3351 21.4361 49.6712 21.7751 50.0726 22.0202C50.4086 22.2441 50.8023 22.3653 51.2057 22.3692C51.44 22.3652 51.6705 22.3102 51.8814 22.2081C52.0924 22.1059 52.2786 21.9591 52.4274 21.7777C52.8198 21.2579 53.0068 20.6112 52.9526 19.9617C52.9526 19.8434 53.0234 19.7843 53.1651 19.7843C53.2477 19.8257 53.289 19.873 53.289 19.9736ZM49.6359 18.406C49.6359 18.0393 49.5061 17.8619 49.2464 17.8619C49.1567 17.867 49.0697 17.8946 48.9934 17.9421C48.9171 17.9896 48.8539 18.0556 48.8097 18.134C48.6596 18.3785 48.5894 18.6638 48.609 18.9502C48.609 19.2477 48.6347 19.5445 48.6857 19.8375C48.7338 20.1035 48.811 20.3634 48.9159 20.6124C49.0162 20.3107 49.1165 20.0209 49.2287 19.7665C49.3408 19.5122 49.4234 19.2874 49.4883 19.1277C49.5673 18.8943 49.6169 18.6518 49.6359 18.406Z" fill="#142466" stroke="#142466" stroke-width="0.2304" stroke-miterlimit="10"/>
<path d="M54.791 14.7713C54.7947 15.0408 54.7027 15.3029 54.5313 15.5107C54.4404 15.621 54.3243 15.7077 54.1927 15.7633C54.0612 15.819 53.9182 15.8419 53.7759 15.8301C53.6538 15.8372 53.5319 15.8133 53.4215 15.7605C53.3111 15.7078 53.2158 15.628 53.1444 15.5284C53.0058 15.3355 52.9315 15.1037 52.9319 14.8659C52.9322 14.5853 53.0165 14.3113 53.1739 14.0792C53.257 13.9574 53.3704 13.8594 53.5029 13.7951C53.6354 13.7307 53.7824 13.7023 53.9293 13.7125C54.0552 13.7062 54.1804 13.7342 54.2916 13.7936C54.4028 13.8529 54.4958 13.9414 54.5608 14.0496C54.7042 14.2635 54.784 14.5138 54.791 14.7713ZM58.4264 22.9342C58.1814 23.219 57.8779 23.4473 57.5366 23.6035C57.1954 23.7597 56.8245 23.8401 56.4493 23.8392C55.9707 23.8723 55.496 23.734 55.1097 23.4488C54.7933 23.187 54.5579 22.8402 54.431 22.4492C54.2867 22.0322 54.209 21.595 54.2008 21.1537C54.2008 20.6865 54.2008 20.2546 54.1713 19.8524C54.1644 19.5182 54.1408 19.1846 54.1005 18.8528C54.0572 18.5925 53.9451 18.4624 53.7641 18.4624C53.5831 18.4624 53.4474 18.5925 53.3569 18.8528C53.3025 19.2228 53.2788 19.5967 53.2861 19.9707C53.2861 20.1363 53.2211 20.2132 53.1031 20.2132C52.9851 20.2132 52.9497 20.1363 52.9497 19.9707C52.9497 19.8051 52.9497 19.5093 52.9792 19.2491C53.0008 18.9977 53.0422 18.7485 53.1031 18.5038C53.1499 18.287 53.247 18.0844 53.3864 17.9122C53.4533 17.8383 53.5355 17.7799 53.6272 17.7411C53.7189 17.7023 53.818 17.684 53.9175 17.6875C54.0383 17.6836 54.1561 17.7252 54.2479 17.804C54.3396 17.8828 54.3986 17.9932 54.4133 18.1134C54.4922 18.4589 54.5337 18.8119 54.5372 19.1663C54.5372 19.5921 54.5372 20.0535 54.5372 20.5445C54.5323 21.0083 54.5939 21.4705 54.7202 21.9168C54.8233 22.3145 55.0265 22.6791 55.3103 22.9756C55.4797 23.1289 55.6786 23.2458 55.8948 23.3191C56.111 23.3923 56.3399 23.4204 56.5674 23.4015C56.8301 23.3957 57.0898 23.3436 57.3346 23.2477C57.6187 23.1376 57.8762 22.9683 58.09 22.7508C58.3451 22.485 58.5456 22.1714 58.6802 21.8281C58.8513 21.3852 58.9335 20.9128 58.9221 20.438V20.0121C58.9221 19.8938 58.9811 19.8347 59.1051 19.8347C59.229 19.8347 59.2526 19.8761 59.2526 19.953V20.2546C59.3254 21.2204 59.0302 22.178 58.4264 22.9342ZM54.431 14.7713C54.4331 14.6201 54.3854 14.4725 54.2952 14.3513C54.2474 14.2899 54.1853 14.241 54.1143 14.2091C54.0433 14.1771 53.9657 14.163 53.888 14.168C53.8103 14.1619 53.7322 14.1756 53.6611 14.2076C53.5899 14.2396 53.528 14.2891 53.4808 14.3513C53.3881 14.4712 53.3401 14.6197 53.3451 14.7713C53.3376 14.9196 53.3861 15.0653 53.4808 15.1794C53.5308 15.2373 53.5938 15.2825 53.6646 15.3113C53.7354 15.34 53.8119 15.3516 53.888 15.3451C53.9672 15.3538 54.0472 15.3421 54.1206 15.311C54.1939 15.28 54.2581 15.2306 54.307 15.1676C54.3875 15.0512 54.4307 14.9129 54.431 14.7713Z" fill="#142466" stroke="#142466" stroke-width="0.2304" stroke-miterlimit="10"/>
<path d="M64.6055 22.9647C64.3622 23.2504 64.06 23.4798 63.7197 23.6371C63.3794 23.7943 63.0091 23.8757 62.6344 23.8757C62.3463 23.8739 62.0607 23.8219 61.7904 23.7219C61.4945 23.617 61.2303 23.4377 61.0232 23.2013C60.8015 22.9432 60.633 22.6437 60.5275 22.32C60.3979 21.9048 60.3362 21.4713 60.3445 21.0364C60.3878 17.7712 60.4291 14.8491 60.4684 12.2701C60.4684 11.164 60.5039 10.0756 60.5157 9.00497C60.5275 7.93432 60.5157 6.98198 60.5157 6.13612C60.5157 5.29025 60.5157 4.58635 60.5452 4.03624C60.5747 3.48613 60.5452 3.17263 60.5452 3.11348C60.5452 2.65209 60.3681 2.41549 60.0022 2.41549C59.8429 2.41549 59.7248 2.52196 59.6422 2.73491C59.5766 2.88279 59.5367 3.04083 59.5242 3.2022C59.5242 3.2022 59.5242 3.5512 59.5242 4.18412C59.5242 4.81704 59.5242 5.64516 59.477 6.66257C59.4298 7.67997 59.4357 8.81568 59.4061 10.0638C59.3766 11.3119 59.3471 12.5541 59.3294 13.7844C59.3117 15.0148 59.2881 16.1505 59.2704 17.2743C59.2527 18.3982 59.2291 19.2618 59.2055 19.948C59.2055 20.1136 59.1465 20.1905 59.0284 20.1905C58.9104 20.1905 58.875 20.1136 58.875 19.948C58.875 19.2618 58.9104 18.3864 58.9222 17.3217C58.934 16.2569 58.9222 15.1035 58.9635 13.8731C59.0048 12.6428 59.0048 11.4124 59.0284 10.1703C59.052 8.92807 59.0639 7.80419 59.0698 6.76904C59.0757 5.73389 59.0698 4.89394 59.0698 4.21369C59.0698 3.53345 59.0698 3.1608 59.0698 3.0839C59.077 2.71149 59.1489 2.34318 59.2822 1.99551C59.3454 1.84406 59.4564 1.71753 59.5981 1.63528C59.7399 1.55302 59.9046 1.51957 60.0671 1.54004C60.1648 1.53552 60.2623 1.5522 60.353 1.58895C60.4436 1.62571 60.5253 1.68166 60.5924 1.75299C60.7208 1.89322 60.8192 2.05828 60.8816 2.23803C60.9389 2.40833 60.9746 2.58522 60.9878 2.76448C60.9878 2.93602 60.9878 3.05432 60.9878 3.11348C60.9052 6.82228 60.8403 10.1288 60.7753 13.0273C60.7104 15.9257 60.6868 18.5402 60.6868 20.8589C60.6185 21.5658 60.8305 22.2713 61.277 22.8228C61.4514 23.0084 61.6617 23.1566 61.895 23.2583C62.1284 23.36 62.3799 23.4131 62.6344 23.4143C62.8972 23.409 63.1569 23.3569 63.4016 23.2605C63.6864 23.1519 63.9442 22.9823 64.157 22.7636C64.412 22.4976 64.6125 22.1841 64.7471 21.8408C64.9187 21.3981 65.001 20.9256 64.9891 20.4508V20.0663C64.9891 19.9421 65.0481 19.8829 65.1662 19.8829C65.2842 19.8829 65.3196 19.9243 65.3196 20.0012V20.3088C65.4216 21.2525 65.1668 22.2002 64.6055 22.9647Z" fill="#142466" stroke="#142466" stroke-width="0.2304" stroke-miterlimit="10"/>
<path d="M70.7904 22.9655C70.5459 23.2513 70.2427 23.4807 69.9014 23.638C69.5601 23.7952 69.1889 23.8765 68.8133 23.8764C68.5253 23.8742 68.2398 23.8222 67.9694 23.7226C67.6863 23.6207 67.4328 23.45 67.2317 23.2257C67.0059 22.9706 66.8369 22.6701 66.7359 22.3444C66.6034 21.9298 66.5416 21.4959 66.553 21.0608C66.5923 17.7956 66.6317 14.8735 66.671 12.2945C66.671 11.1884 66.7064 10.1 66.7182 9.02937C66.73 7.95873 66.7182 7.00639 66.7182 6.16052C66.7182 5.31465 66.7182 4.61075 66.7477 4.06064C66.7773 3.51053 66.7477 3.19703 66.7477 3.13788C66.7477 2.6765 66.5648 2.43989 66.2048 2.43989C66.0454 2.43989 65.9215 2.54636 65.8448 2.75931C65.7781 2.90717 65.7362 3.06506 65.7209 3.2266C65.7209 3.2266 65.7209 3.5756 65.7209 4.20852C65.7209 4.84144 65.7209 5.66956 65.6795 6.68697C65.6382 7.70437 65.6323 8.84008 65.6028 10.0882C65.5733 11.3363 65.5497 12.5785 65.5261 13.8088C65.5025 15.0392 65.4848 16.1749 65.4671 17.2987C65.4494 18.4226 65.4258 19.2862 65.4081 19.9724C65.4081 20.138 65.3491 20.2149 65.2251 20.2149C65.1012 20.2149 65.0776 20.138 65.0776 19.9724C65.0776 19.2862 65.113 18.4108 65.1189 17.3461C65.1248 16.2813 65.1189 15.1279 65.1661 13.8975C65.2133 12.6672 65.2074 11.4368 65.2251 10.1947C65.2428 8.95247 65.2605 7.82859 65.2723 6.79344C65.2841 5.75829 65.2723 4.91834 65.3018 4.2381C65.3313 3.55785 65.3018 3.1852 65.3018 3.1083C65.3101 2.73655 65.3799 2.36875 65.5084 2.01991C65.5724 1.86906 65.6835 1.74311 65.8251 1.66097C65.9666 1.57884 66.1309 1.54497 66.2933 1.56445C66.3918 1.56022 66.4901 1.57702 66.5817 1.61373C66.6733 1.65044 66.756 1.70623 66.8245 1.77739C66.9532 1.91635 67.0499 2.08192 67.1077 2.26243C67.1651 2.43274 67.2008 2.60962 67.214 2.78888C67.214 2.96042 67.214 3.07873 67.214 3.13788C67.1314 6.84865 67.0605 10.1532 67.0015 13.0517C66.9425 15.9501 66.911 18.5606 66.9071 20.8833C66.8717 21.2335 66.9055 21.5872 67.0068 21.9242C67.1081 22.2612 67.2748 22.5749 67.4973 22.8472C67.6715 23.0331 67.8817 23.1815 68.1151 23.2832C68.3485 23.3849 68.6001 23.4378 68.8546 23.4387C69.1174 23.4329 69.3771 23.3808 69.6219 23.2849C69.906 23.1748 70.1635 23.0054 70.3773 22.788C70.6324 22.5221 70.8329 22.2086 70.9674 21.8652C71.1418 21.4233 71.2242 20.9502 71.2094 20.4752V20.067C71.2053 20.042 71.2072 20.0164 71.215 19.9923C71.2227 19.9682 71.2361 19.9463 71.254 19.9284C71.2719 19.9104 71.2937 19.897 71.3178 19.8893C71.3418 19.8815 71.3674 19.8796 71.3924 19.8837C71.4927 19.8837 71.5399 19.9251 71.5399 20.002V20.3096C71.6318 21.2578 71.3643 22.206 70.7904 22.9655Z" fill="#142466" stroke="#142466" stroke-width="0.2304" stroke-miterlimit="10"/>
<path d="M78.8008 22.0201C78.5764 22.4725 78.2633 22.8748 77.8801 23.2031C77.5119 23.5103 77.0867 23.7414 76.629 23.8833C76.1789 24.0181 75.7119 24.0878 75.2421 24.0904C74.6224 24.1022 74.0109 23.947 73.4716 23.6408C73.2351 23.517 73.0376 23.3298 72.9011 23.1C72.7646 22.8702 72.6944 22.6069 72.6985 22.3395C72.7142 21.9903 72.8069 21.6489 72.97 21.3398C72.9817 21.3285 72.9905 21.3146 72.9956 21.2991C73.0008 21.2837 73.0021 21.2672 72.9995 21.2511C72.9995 21.1683 72.97 21.1269 72.911 21.1269C72.5068 21.0878 72.116 20.9606 71.766 20.7542C71.5704 20.6144 71.4164 20.4238 71.3208 20.2028C71.2251 19.9819 71.1913 19.739 71.2231 19.5002C71.226 19.1334 71.3286 18.7744 71.52 18.4617C71.7113 18.149 71.9841 17.8945 72.309 17.7257C72.5594 17.5915 72.8394 17.5223 73.1234 17.5246C73.5601 17.5004 73.9928 17.6187 74.3569 17.8617C74.6004 18.0223 74.8158 18.2222 74.9942 18.4532C75.0156 18.5099 75.0256 18.5702 75.0238 18.6307C75.0238 18.7135 75.0237 18.7667 74.9647 18.7845C74.9274 18.8068 74.8842 18.8171 74.8408 18.8141C74.7611 18.8139 74.6846 18.782 74.6283 18.7253C74.4396 18.5113 74.203 18.3451 73.9378 18.2403C73.6717 18.1734 73.3977 18.1436 73.1234 18.1516C72.9234 18.1607 72.7271 18.2093 72.5458 18.2945C72.3646 18.3798 72.2019 18.5001 72.067 18.6484C71.9236 18.7749 71.8072 18.9292 71.725 19.102C71.6429 19.2749 71.5966 19.4627 71.589 19.654C71.5779 19.8217 71.6169 19.9889 71.7009 20.1343C71.785 20.2797 71.9104 20.3966 72.0611 20.4703C72.3729 20.6321 72.7192 20.7154 73.0703 20.7128C73.3761 20.7325 73.6828 20.6923 73.9733 20.5945C74.0642 20.5384 74.1676 20.5059 74.2742 20.4999C74.3982 20.4999 74.4572 20.5531 74.4572 20.6537C74.4572 20.7542 74.3982 20.8016 74.2742 20.8607C73.9476 20.9783 73.6541 21.1731 73.4185 21.4286C73.2475 21.6188 73.1511 21.8646 73.147 22.1206C73.1594 22.3311 73.2235 22.5352 73.3337 22.7148C73.4439 22.8944 73.5967 23.0438 73.7785 23.1499C74.3067 23.4834 74.9258 23.6427 75.549 23.6053C75.9485 23.6037 76.3458 23.546 76.7293 23.4338C77.1255 23.3255 77.4939 23.1332 77.8095 22.8699C78.1251 22.6066 78.3807 22.2785 78.5588 21.9077C78.7708 21.4548 78.8739 20.9585 78.8598 20.4585V20.1272C78.8598 19.9853 78.9188 19.9143 79.0369 19.9143C79.1372 19.9143 79.1903 19.9143 79.1903 19.9734V20.2751C79.1971 20.8792 79.0638 21.4765 78.8008 22.0201Z" fill="#142466" stroke="#142466" stroke-width="0.2304" stroke-miterlimit="10"/>
<path d="M103.523 22.9833C103.282 23.2785 102.979 23.5168 102.635 23.6814C102.291 23.846 101.915 23.9328 101.535 23.9356C101.067 23.9637 100.604 23.8346 100.218 23.5689C99.8966 23.3258 99.6542 22.9922 99.5221 22.6106C99.375 22.1874 99.2895 21.7451 99.2683 21.2974C99.2683 20.8124 99.2211 20.3333 99.2211 19.8482V10.1178C99.2226 9.65889 99.193 9.2004 99.1326 8.74549C99.0837 8.34943 98.9658 7.96503 98.7844 7.60978C98.6253 7.30098 98.3921 7.03671 98.1057 6.84081C97.7807 6.6377 97.4025 6.53675 97.0198 6.55097C96.781 6.54452 96.5432 6.58564 96.3203 6.67195C96.0975 6.75825 95.8939 6.88803 95.7214 7.05375C95.3756 7.38741 95.1041 7.79057 94.9247 8.23678C94.7309 8.71667 94.6 9.2197 94.5352 9.73332C94.47 10.184 94.4345 10.6385 94.429 11.0938V21.8771C94.4591 22.3449 94.3369 22.8099 94.0808 23.2021C93.9951 23.3357 93.8796 23.4475 93.7433 23.5286C93.6071 23.6097 93.4539 23.6579 93.2959 23.6694C93.1765 23.6639 93.0604 23.6293 92.9575 23.5684C92.8546 23.5076 92.7682 23.4224 92.7057 23.3204C92.5072 22.9896 92.4164 22.6051 92.446 22.2202V7.55063C92.446 6.3676 92.4165 5.35019 92.3575 4.49841C92.3209 3.7935 92.2141 3.09401 92.0388 2.41036C91.9349 1.96502 91.7126 1.5562 91.3955 1.22733C91.0983 0.959518 90.7091 0.817482 90.3096 0.831015C89.8133 0.818882 89.3313 0.998958 88.964 1.3338C88.5891 1.66549 88.2824 2.06735 88.0611 2.51683C87.831 2.99172 87.6644 3.49488 87.5654 4.01337C87.4695 4.46066 87.4181 4.91639 87.4119 5.37385V21.8771C87.4438 22.3542 87.3172 22.8284 87.0519 23.2258C86.9662 23.3594 86.8507 23.4711 86.7145 23.5523C86.5782 23.6334 86.425 23.6816 86.267 23.6931C86.1482 23.6852 86.033 23.6495 85.9305 23.5889C85.828 23.5283 85.7411 23.4444 85.6768 23.3441C85.4688 23.0169 85.3734 22.6305 85.4053 22.2439V7.55063C85.4053 7.36726 85.3345 7.27853 85.1929 7.27853C85.1057 7.29669 85.0233 7.33296 84.9509 7.385C84.8191 7.46323 84.6831 7.53431 84.5437 7.59795L84.048 7.82272C83.9245 7.88401 83.7901 7.9202 83.6526 7.9292C83.5345 7.9292 83.4578 7.9292 83.4283 7.87005C83.392 7.80524 83.3756 7.73119 83.3811 7.6571C83.3768 7.61598 83.3846 7.57451 83.4035 7.53775C83.4223 7.50098 83.4515 7.47052 83.4873 7.45007L83.8355 7.2667C84.0539 7.16614 84.3135 7.03601 84.6027 6.87038C84.8321 6.75158 85.0494 6.61094 85.2519 6.45041C85.2807 6.42673 85.3125 6.40685 85.3463 6.39126C85.409 6.35342 85.4799 6.33111 85.5529 6.32619C85.6768 6.32619 85.7358 6.409 85.7358 6.56871V7.45007C85.7358 7.91145 85.7358 8.49113 85.7358 9.18321C85.7358 9.87528 85.7358 10.6502 85.7358 11.496V21.2146C85.7358 21.3152 85.7358 21.4631 85.7358 21.6523C85.7408 21.8524 85.7705 22.0511 85.8244 22.2439C85.8671 22.4174 85.9326 22.5845 86.0191 22.7407C86.045 22.8005 86.0867 22.852 86.1398 22.8895C86.1929 22.9271 86.2553 22.9493 86.3201 22.9537C86.6034 22.9537 86.7686 22.7703 86.8217 22.4095C86.8682 22.0585 86.8919 21.7048 86.8926 21.3507V5.28512C86.8885 4.59635 86.9758 3.9101 87.1522 3.2444C87.3021 2.65906 87.5453 2.1018 87.8722 1.59407C88.1597 1.15756 88.5357 0.786698 88.9758 0.505681C89.3924 0.247649 89.873 0.112356 90.3627 0.115281C90.7003 0.115643 91.0326 0.198912 91.3306 0.357802C91.6839 0.581996 91.9536 0.916736 92.0978 1.31014C92.3508 1.93932 92.5175 2.59993 92.5936 3.27397C92.7316 4.36061 92.7927 5.45568 92.7765 6.55097V16.6067C92.7765 17.4408 92.7765 18.192 92.7765 18.8545C92.7765 19.517 92.7765 20.0375 92.7765 20.4871V21.185C92.7765 21.2856 92.7765 21.4335 92.7765 21.6228C92.7865 21.8228 92.8182 22.0211 92.8709 22.2143C92.9111 22.3886 92.9767 22.5561 93.0657 22.7112C93.0904 22.7717 93.1318 22.8239 93.1852 22.8617C93.2385 22.8994 93.3015 22.9211 93.3667 22.9241C93.65 22.9241 93.8152 22.7407 93.8624 22.3799C93.9137 22.0293 93.9394 21.6754 93.9391 21.3211V11.0287C93.9347 10.3427 94.006 9.65833 94.1516 8.98801C94.2624 8.41072 94.4614 7.85405 94.7418 7.33768C94.9873 6.90546 95.3261 6.53362 95.7332 6.24929C96.132 5.9857 96.6012 5.84957 97.0788 5.85889C97.4134 5.85821 97.7453 5.91834 98.0585 6.03635C98.3791 6.16926 98.6555 6.39082 98.8552 6.67518C99.1083 7.0501 99.2885 7.46953 99.3864 7.91145C99.5298 8.56784 99.5952 9.23896 99.5811 9.91077V19.653C99.5811 20.0789 99.5811 20.5107 99.5811 20.9544C99.5961 21.3578 99.6717 21.7566 99.8054 22.1374C99.919 22.4826 100.123 22.791 100.396 23.0306C100.735 23.2846 101.153 23.4084 101.576 23.3796C101.839 23.3743 102.098 23.3222 102.343 23.2258C102.628 23.1172 102.886 22.9476 103.098 22.7289C103.354 22.4629 103.554 22.1494 103.689 21.8061C103.86 21.3633 103.942 20.8909 103.931 20.4161V20.1262C103.931 19.9843 103.99 19.9133 104.108 19.9133C104.208 19.9133 104.261 19.9133 104.261 19.9724V20.2741C104.353 21.2371 104.091 22.2007 103.523 22.9833Z" fill="#142466" stroke="#142466" stroke-width="0.2304" stroke-miterlimit="10"/>
<path d="M113.37 22.9365C113.127 23.2214 112.824 23.4499 112.484 23.6062C112.144 23.7624 111.774 23.8427 111.399 23.8415C110.919 23.8735 110.443 23.7353 110.054 23.4511C109.739 23.1877 109.504 22.8415 109.375 22.4515C109.233 22.0342 109.157 21.597 109.151 21.156C109.151 20.6887 109.151 20.2569 109.121 19.8547C109.116 19.5202 109.09 19.1864 109.045 18.855C109.003 18.5948 108.897 18.4646 108.714 18.4646C108.531 18.4646 108.354 18.6362 108.307 18.9793C108.251 19.3987 108.227 19.822 108.236 20.2451C108.247 20.7716 108.175 21.2966 108.024 21.8008C107.907 22.1909 107.719 22.556 107.469 22.8773C107.257 23.1434 106.989 23.3595 106.684 23.5103C106.407 23.6488 106.102 23.7216 105.793 23.7232C105.502 23.7406 105.213 23.6828 104.951 23.5554C104.69 23.4279 104.465 23.2352 104.3 22.9957C103.965 22.4964 103.791 21.9055 103.804 21.3039C103.808 20.9019 103.873 20.5028 103.999 20.1209C104.125 19.7185 104.325 19.3434 104.589 19.0148C104.85 18.6838 105.178 18.4117 105.551 18.2162C105.962 18.0085 106.418 17.9049 106.879 17.9145C107.102 17.908 107.326 17.9279 107.546 17.9737C107.681 17.9737 107.752 18.1038 107.752 18.3049C107.754 18.3425 107.745 18.3798 107.726 18.4123C107.707 18.4449 107.679 18.4712 107.646 18.4883C107.597 18.5218 107.54 18.5422 107.481 18.5475H107.121C106.701 18.5403 106.284 18.6229 105.899 18.79C105.571 18.9252 105.273 19.1265 105.026 19.3815C104.796 19.6311 104.616 19.9221 104.494 20.2392C104.379 20.5496 104.319 20.878 104.317 21.2093C104.31 21.695 104.468 22.1686 104.766 22.552C104.92 22.7438 105.117 22.8971 105.34 22.9999C105.564 23.1028 105.808 23.1525 106.054 23.145C106.3 23.1376 106.54 23.0732 106.757 22.957C106.974 22.8408 107.161 22.6759 107.304 22.4751C107.725 21.8085 107.931 21.0276 107.894 20.2392C107.894 19.9198 107.929 19.6063 107.941 19.3046C107.947 19.0103 107.98 18.7171 108.041 18.4292C108.078 18.26 108.157 18.1031 108.271 17.9737C108.344 17.8898 108.435 17.8242 108.538 17.7821C108.64 17.7399 108.751 17.7225 108.862 17.7312C108.983 17.7258 109.103 17.7667 109.196 17.8456C109.289 17.9246 109.348 18.0358 109.363 18.1571C109.44 18.5028 109.479 18.8558 109.481 19.21C109.481 19.6358 109.481 20.0972 109.481 20.5882C109.477 21.0516 109.537 21.5133 109.658 21.9605C109.764 22.3571 109.967 22.721 110.248 23.0193C110.417 23.1722 110.615 23.2888 110.83 23.362C111.045 23.4353 111.273 23.4636 111.5 23.4452C111.762 23.4399 112.022 23.3878 112.267 23.2914C112.552 23.1828 112.81 23.0133 113.022 22.7945C113.277 22.5286 113.478 22.2151 113.612 21.8718C113.784 21.4289 113.866 20.9565 113.854 20.4817V20.1268C113.854 19.9848 113.913 19.9139 114.031 19.9139C114.132 19.9139 114.185 19.9139 114.185 19.973V20.2747C114.259 21.2333 113.968 22.1846 113.37 22.9365Z" fill="#142466" stroke="#142466" stroke-width="0.2304" stroke-miterlimit="10"/>
<path d="M120.453 21.8481C120.306 22.2772 120.087 22.6775 119.804 23.0312C119.551 23.3514 119.23 23.6119 118.865 23.7942C118.524 23.9631 118.148 24.0502 117.768 24.0486C117.463 24.0895 117.153 24.048 116.87 23.9284C116.586 23.8088 116.34 23.6154 116.157 23.3683C115.867 22.8465 115.727 22.2553 115.749 21.6588C115.753 21.184 115.786 20.7098 115.85 20.2392C115.92 19.7364 116.009 19.2455 116.109 18.7604C116.109 18.7013 116.109 18.6717 116.08 18.6717C115.929 18.7181 115.772 18.7421 115.614 18.7427C115.401 18.7427 115.183 18.7427 114.964 18.7427C114.746 18.7427 114.545 18.7427 114.374 18.7427H114.091C114.026 18.7427 113.997 18.7841 113.997 18.861L114.12 19.2869C114.177 19.5132 114.207 19.7455 114.209 19.9789C114.213 20.0078 114.21 20.0372 114.201 20.0648C114.191 20.0925 114.176 20.1175 114.155 20.1382C114.135 20.1588 114.11 20.1743 114.082 20.1837C114.055 20.193 114.025 20.1958 113.997 20.1919C113.92 20.1919 113.878 20.1919 113.878 20.1032C113.879 19.905 113.863 19.7072 113.831 19.5116C113.783 19.2672 113.689 19.0343 113.554 18.8255C113.5 18.7358 113.428 18.6591 113.341 18.6007L113.099 18.4469C113.022 18.4014 112.95 18.3457 112.887 18.2813C112.857 18.2489 112.833 18.2107 112.818 18.169C112.803 18.1274 112.796 18.0831 112.798 18.0388C112.799 17.9544 112.819 17.8713 112.857 17.7962C112.873 17.761 112.899 17.731 112.932 17.7101C112.964 17.6891 113.002 17.6779 113.04 17.6779C113.13 17.6748 113.216 17.7066 113.282 17.7667C113.494 17.9118 113.737 18.005 113.991 18.0388C114.274 18.0801 114.56 18.0999 114.846 18.0979C115.088 18.0979 115.33 18.0979 115.572 18.0979H116.162C116.286 18.0913 116.409 18.1136 116.522 18.163C116.605 18.1985 116.646 18.299 116.646 18.4647C116.618 18.9046 116.536 19.3395 116.404 19.7601C116.244 20.338 116.163 20.9349 116.162 21.5346C116.148 22.0104 116.28 22.4791 116.54 22.8774C116.719 23.0857 116.946 23.248 117.2 23.3509C117.455 23.4538 117.73 23.4942 118.004 23.4689C118.267 23.4636 118.526 23.4115 118.771 23.3151C119.056 23.2065 119.314 23.0369 119.526 22.8182C119.779 22.5507 119.98 22.2376 120.117 21.8955C120.286 21.4521 120.366 20.9798 120.353 20.5054V20.1268C120.353 19.9849 120.418 19.9139 120.536 19.9139C120.654 19.9139 120.689 19.9139 120.689 19.973V20.2747C120.698 20.8087 120.618 21.3405 120.453 21.8481Z" fill="#142466" stroke="#142466" stroke-width="0.2304" stroke-miterlimit="10"/>
<path d="M129.722 22.9357C129.477 23.2208 129.174 23.4493 128.833 23.6055C128.491 23.7618 128.12 23.842 127.745 23.8408C127.267 23.8718 126.793 23.7336 126.406 23.4504C126.091 23.187 125.856 22.8408 125.727 22.4507C125.582 22.0341 125.506 21.5965 125.503 21.1553C125.503 20.688 125.503 20.2562 125.473 19.8539C125.468 19.5195 125.442 19.1857 125.396 18.8543C125.355 18.594 125.243 18.4639 125.066 18.4639C124.889 18.4639 124.706 18.6354 124.659 18.9785C124.602 19.3881 124.576 19.8013 124.582 20.2148C124.593 20.7413 124.521 21.2663 124.369 21.7705C124.253 22.1606 124.064 22.5256 123.815 22.847C123.602 23.1121 123.334 23.328 123.03 23.4799C122.753 23.6178 122.448 23.6907 122.139 23.6929C121.846 23.7135 121.554 23.6573 121.29 23.5296C121.026 23.402 120.8 23.2075 120.634 22.9653C120.299 22.466 120.125 21.8752 120.138 21.2736C120.142 20.8715 120.207 20.4725 120.333 20.0906C120.459 19.6882 120.659 19.313 120.923 18.9844C121.183 18.6525 121.511 18.3802 121.885 18.1859C122.296 17.9782 122.752 17.8746 123.213 17.8842C123.435 17.8773 123.657 17.8972 123.874 17.9434C124.015 17.9434 124.086 18.0735 124.086 18.2746C124.088 18.3122 124.079 18.3495 124.06 18.382C124.041 18.4145 124.013 18.4409 123.98 18.458C123.931 18.4915 123.874 18.5119 123.815 18.5171H123.455C123.035 18.5086 122.618 18.5914 122.233 18.7596C121.912 18.8999 121.623 19.103 121.382 19.357C121.141 19.6109 120.953 19.9106 120.828 20.2384C120.711 20.5485 120.649 20.8769 120.646 21.2085C120.64 21.6948 120.801 22.1684 121.1 22.5513C121.254 22.7429 121.45 22.8963 121.673 22.9991C121.896 23.102 122.14 23.1517 122.385 23.1443C122.63 23.1368 122.871 23.0724 123.087 22.9562C123.303 22.84 123.49 22.675 123.632 22.4744C124.056 21.809 124.263 21.0272 124.222 20.2384C124.222 19.919 124.251 19.6055 124.263 19.3038C124.274 19.0095 124.309 18.7167 124.369 18.4284C124.403 18.2596 124.481 18.1026 124.594 17.9729C124.667 17.8905 124.759 17.8258 124.861 17.7838C124.963 17.7418 125.074 17.7236 125.184 17.7304C125.305 17.7266 125.422 17.7681 125.514 17.8469C125.606 17.9257 125.665 18.0361 125.68 18.1563C125.758 18.5018 125.8 18.8548 125.804 19.2092C125.804 19.6351 125.804 20.0965 125.804 20.5874C125.802 21.0511 125.863 21.5129 125.986 21.9597C126.092 22.3563 126.295 22.7202 126.577 23.0185C126.745 23.172 126.943 23.289 127.158 23.3623C127.373 23.4356 127.601 23.4635 127.828 23.4444C128.091 23.4391 128.35 23.3871 128.595 23.2906C128.88 23.1821 129.138 23.0125 129.35 22.7938C129.603 22.5263 129.804 22.2132 129.941 21.871C130.11 21.4277 130.19 20.9553 130.177 20.481V20.126C130.177 19.9841 130.242 19.9131 130.36 19.9131C130.478 19.9131 130.513 19.9131 130.513 19.9722V20.2739C130.594 21.2294 130.312 22.1804 129.722 22.9357Z" fill="#142466" stroke="#142466" stroke-width="0.2304" stroke-miterlimit="10"/>
<path d="M135.908 22.9653C135.664 23.2509 135.36 23.4801 135.019 23.6373C134.678 23.7945 134.307 23.876 133.931 23.8763C133.647 23.8757 133.365 23.8236 133.099 23.7225C132.821 23.6104 132.573 23.4317 132.379 23.202C132.152 22.9449 131.977 22.6454 131.866 22.3206C131.726 21.9075 131.66 21.473 131.671 21.037C131.671 20.8359 131.671 20.5106 131.671 20.0551C131.671 19.5996 131.671 19.0613 131.671 18.4225C131.671 17.7837 131.671 17.0798 131.701 16.2931C131.73 15.5063 131.73 14.6782 131.748 13.8146H130.668C130.626 14.903 130.603 15.9855 130.591 17.062C130.579 18.1386 130.591 19.1028 130.55 19.9486C130.55 20.1142 130.485 20.1911 130.367 20.1911C130.249 20.1911 130.213 20.1142 130.213 19.9486C130.213 19.1028 130.249 18.1741 130.261 17.062C130.272 15.95 130.261 14.903 130.308 13.8146H126.991C126.607 13.8146 126.401 13.7259 126.401 13.5425C126.401 13.3591 126.59 13.2704 126.991 13.2704H130.337C130.337 12.5843 130.373 11.9336 130.385 11.3184C130.396 10.7032 130.385 10.1354 130.414 9.674C130.444 9.21262 130.414 8.79264 130.444 8.49097C130.473 8.1893 130.444 7.99409 130.444 7.92903C130.435 7.55681 130.501 7.18666 130.638 6.84064C130.709 6.69121 130.824 6.56754 130.968 6.48694C131.112 6.40634 131.277 6.37282 131.441 6.39109C131.539 6.38656 131.636 6.40324 131.727 6.44C131.817 6.47675 131.899 6.53271 131.966 6.60403C132.096 6.74058 132.195 6.90415 132.255 7.08316C132.312 7.25563 132.348 7.4344 132.362 7.61552C132.362 7.78706 132.362 7.89945 132.362 7.96452C132.32 9.14755 132.297 10.1413 132.291 10.9872C132.285 11.833 132.255 12.5961 132.214 13.2822H135.59C135.973 13.2822 136.18 13.371 136.18 13.5543C136.18 13.7377 135.991 13.8264 135.59 13.8264H132.214C132.214 14.4889 132.179 15.0923 132.167 15.601C132.155 16.1097 132.167 16.6716 132.12 17.204C132.072 17.7364 132.084 18.2924 132.078 18.8661C132.072 19.4399 132.078 20.1024 132.078 20.8477C132.01 21.5546 132.222 22.2601 132.668 22.8116C132.843 22.9967 133.054 23.1445 133.287 23.2461C133.52 23.3478 133.772 23.4012 134.026 23.4031C134.291 23.3978 134.552 23.3458 134.799 23.2493C135.082 23.1404 135.338 22.9709 135.548 22.7524C135.805 22.488 136.006 22.1741 136.139 21.8296C136.31 21.3869 136.392 20.9144 136.381 20.4396V20.0669C136.377 20.0419 136.378 20.0163 136.386 19.9922C136.394 19.9681 136.407 19.9462 136.425 19.9282C136.443 19.9103 136.465 19.8969 136.489 19.8892C136.513 19.8814 136.539 19.8795 136.564 19.8836C136.664 19.8836 136.711 19.925 136.711 20.0019V20.3094C136.785 21.2643 136.499 22.2121 135.908 22.9653ZM131.913 7.97635C131.913 7.50905 131.73 7.27836 131.37 7.27836C131.205 7.27836 131.087 7.38483 131.004 7.59778C130.941 7.74642 130.901 7.90409 130.886 8.06508C130.886 8.06508 130.886 8.23662 130.886 8.52054C130.886 8.80447 130.886 9.17713 130.845 9.65034C130.804 10.1235 130.804 10.6737 130.78 11.3007C130.756 11.9277 130.739 12.5902 130.721 13.2941H131.848C131.848 12.6316 131.848 11.9868 131.848 11.3716C131.848 10.7565 131.848 10.1886 131.848 9.72724C131.848 9.26585 131.848 8.84588 131.878 8.5442C131.907 8.24253 131.913 8.0355 131.913 7.97635Z" fill="#142466" stroke="#142466" stroke-width="0.2304" stroke-miterlimit="10"/>
<path d="M146.266 22.9543C146.021 23.2432 145.716 23.4753 145.373 23.6346C145.029 23.7939 144.656 23.8767 144.277 23.877C143.777 23.9127 143.281 23.7726 142.873 23.4807C142.561 23.2202 142.335 22.872 142.223 22.4811C142.102 22.0591 142.031 21.6243 142.011 21.1857C142.011 20.7184 141.958 20.2866 141.911 19.8843C141.875 19.5342 141.77 19.1946 141.604 18.8847C141.52 18.7708 141.413 18.6768 141.289 18.6093C141.165 18.5418 141.028 18.5024 140.887 18.494C140.746 18.4855 140.605 18.5082 140.474 18.5603C140.343 18.6125 140.225 18.693 140.128 18.7959C139.919 19.0602 139.818 19.3943 139.845 19.7305V21.8777C139.844 22.1053 139.828 22.3325 139.798 22.558C139.77 22.7797 139.718 22.9978 139.644 23.2086C139.585 23.3925 139.482 23.5591 139.343 23.6937C139.208 23.8161 139.03 23.8817 138.848 23.877C138.759 23.88 138.671 23.8653 138.587 23.8338C138.504 23.8024 138.428 23.7547 138.364 23.6937C138.234 23.5556 138.137 23.3897 138.081 23.2086C138.007 22.9978 137.955 22.7797 137.927 22.558C137.897 22.3325 137.881 22.1053 137.88 21.8777V3.32189C137.887 3.23034 137.875 3.13828 137.845 3.05168C137.814 2.96507 137.766 2.88584 137.703 2.81911C137.596 2.71619 137.455 2.65708 137.307 2.65348C137.23 2.65219 137.154 2.66795 137.083 2.69965C137.013 2.73134 136.95 2.77818 136.9 2.83685C136.78 2.99177 136.722 3.18547 136.735 3.38104V19.973C136.735 20.1387 136.664 20.2156 136.522 20.2156C136.381 20.2156 136.404 20.1387 136.404 19.973V3.46977C136.391 3.09446 136.454 2.72035 136.587 2.36955C136.653 2.2203 136.764 2.09632 136.906 2.0163C137.047 1.93629 137.211 1.90456 137.372 1.92592C137.526 1.91272 137.679 1.94635 137.813 2.02237C137.947 2.09839 138.054 2.21325 138.122 2.35181C138.272 2.67366 138.344 3.02607 138.334 3.38104V4.56407C138.334 5.00771 138.334 5.63472 138.334 6.43918C138.334 7.24364 138.334 8.32611 138.334 9.67477V21.7003C138.334 21.7358 138.334 21.8363 138.334 21.9842C138.348 22.141 138.369 22.297 138.399 22.4515C138.424 22.6045 138.474 22.7524 138.547 22.8892C138.57 22.9475 138.61 22.9977 138.661 23.0334C138.713 23.0692 138.773 23.089 138.836 23.0903C138.9 23.087 138.961 23.0666 139.014 23.0312C139.067 22.9958 139.109 22.9468 139.137 22.8892C139.218 22.7546 139.274 22.6062 139.302 22.4515C139.302 22.2918 139.355 22.138 139.379 21.9842C139.402 21.8304 139.379 21.7358 139.379 21.7003V19.6122C139.379 19.5117 139.379 19.3697 139.408 19.1863C139.433 18.9945 139.495 18.8095 139.591 18.6421C139.703 18.451 139.857 18.2873 140.04 18.163C140.293 18.0072 140.587 17.9329 140.884 17.9501C141.075 17.929 141.269 17.9552 141.448 18.0263C141.627 18.0974 141.786 18.2114 141.911 18.3582C142.123 18.659 142.263 19.0054 142.318 19.3697C142.393 19.8038 142.438 20.2425 142.454 20.6829C142.471 21.1341 142.537 21.5822 142.648 22.0197C142.735 22.3998 142.923 22.7493 143.191 23.0312C143.358 23.1798 143.554 23.2926 143.766 23.3628C143.978 23.433 144.202 23.459 144.425 23.4393C144.69 23.4341 144.951 23.382 145.198 23.2855C145.481 23.1767 145.737 23.0071 145.947 22.7887C146.202 22.5227 146.403 22.2092 146.538 21.8659C146.709 21.423 146.791 20.9506 146.78 20.4758V20.1268C146.78 19.9849 146.839 19.9139 146.963 19.9139C147.086 19.9139 147.11 19.9139 147.11 19.973V20.2747C147.177 21.2427 146.875 22.2001 146.266 22.9543Z" fill="#142466" stroke="#142466" stroke-width="0.2304" stroke-miterlimit="10"/>
<path d="M155.451 19.9731C155.527 20.8751 155.257 21.7723 154.695 22.4811C154.48 22.7259 154.216 22.9225 153.92 23.0581C153.625 23.1937 153.303 23.2651 152.978 23.2678C152.266 23.2667 151.583 22.984 151.078 22.4811C150.843 22.8803 150.523 23.2219 150.139 23.4808C149.757 23.7427 149.304 23.881 148.841 23.8771C148.512 23.9022 148.181 23.8431 147.881 23.7055C147.581 23.568 147.32 23.3563 147.124 23.0904C146.757 22.5459 146.568 21.9014 146.581 21.2449C146.582 20.8097 146.648 20.3772 146.775 19.9613C146.901 19.5404 147.09 19.1414 147.336 18.7782C147.569 18.4356 147.873 18.1472 148.227 17.9324C148.585 17.7233 148.993 17.615 149.408 17.6189C149.737 17.5927 150.068 17.6512 150.368 17.7889C150.669 17.9266 150.929 18.1388 151.125 18.4056C151.492 18.9474 151.682 19.5904 151.668 20.2452C151.667 20.8941 151.522 21.5348 151.243 22.1203C151.456 22.3578 151.716 22.5478 152.007 22.6783C152.298 22.8087 152.612 22.8765 152.931 22.8774C153.213 22.876 153.493 22.8177 153.752 22.7059C154.012 22.5942 154.246 22.4312 154.442 22.2268C154.686 21.9385 154.87 21.6043 154.984 21.2437C155.097 20.8831 155.138 20.5034 155.103 20.1269C155.103 19.9672 155.173 19.8844 155.315 19.8844C155.457 19.8844 155.451 19.914 155.451 19.9731ZM150.806 22.2445C150.522 21.8781 150.296 21.4689 150.139 21.0319C149.95 20.5294 149.858 19.9955 149.868 19.4585C149.87 19.094 149.9 18.7301 149.956 18.3701C149.736 18.285 149.502 18.2447 149.266 18.2518C148.935 18.2454 148.609 18.3227 148.316 18.4766C148.049 18.6222 147.818 18.824 147.637 19.0681C147.451 19.323 147.313 19.6096 147.23 19.914C147.14 20.2234 147.095 20.544 147.094 20.8663C147.087 21.4616 147.26 22.045 147.59 22.5403C147.753 22.7833 147.976 22.9793 148.238 23.109C148.5 23.2387 148.791 23.2975 149.083 23.2797C149.45 23.2898 149.811 23.191 150.122 22.9958C150.41 22.8043 150.649 22.5468 150.818 22.2445H150.806ZM151.225 20.5824C151.227 20.1926 151.151 19.8063 151.001 19.4467C150.861 19.1085 150.637 18.8114 150.352 18.583C150.315 18.722 150.295 18.8651 150.293 19.0089V19.3993C150.249 20.2646 150.503 21.1187 151.013 21.8186C151.164 21.4243 151.24 21.0049 151.237 20.5824H151.225Z" fill="#142466" stroke="#142466" stroke-width="0.2304" stroke-miterlimit="10"/>
<path d="M165.349 22.954C165.102 23.243 164.796 23.4752 164.452 23.6344C164.108 23.7937 163.733 23.8764 163.354 23.8767C162.856 23.9115 162.361 23.7714 161.955 23.4804C161.642 23.2217 161.415 22.8727 161.306 22.4807C161.179 22.0601 161.107 21.6246 161.093 21.1853C161.093 20.718 161.04 20.2862 160.987 19.884C160.956 19.5337 160.853 19.1936 160.686 18.8843C160.603 18.7705 160.495 18.6765 160.371 18.609C160.247 18.5415 160.11 18.5021 159.969 18.4936C159.829 18.4852 159.688 18.5078 159.557 18.56C159.425 18.6122 159.307 18.6926 159.211 18.7956C158.997 19.0576 158.893 19.3928 158.922 19.7302V21.8774C158.922 22.1048 158.909 22.332 158.88 22.5576C158.849 22.7788 158.798 22.9966 158.727 23.2083C158.668 23.3922 158.564 23.5587 158.426 23.6934C158.29 23.8158 158.113 23.8814 157.93 23.8767C157.841 23.8823 157.752 23.8702 157.668 23.841C157.584 23.8118 157.506 23.7662 157.44 23.7068C157.374 23.6474 157.32 23.5753 157.281 23.4948C157.243 23.4143 157.221 23.327 157.216 23.2379C157.135 22.809 157.095 22.3731 157.098 21.9365V19.9727C157.102 19.6607 157.061 19.3497 156.974 19.05C156.934 18.9264 156.855 18.8195 156.748 18.7458C156.641 18.672 156.513 18.6355 156.384 18.6418C156.262 18.6436 156.141 18.6702 156.03 18.72C155.918 18.7698 155.818 18.8418 155.735 18.9317C155.486 19.3212 155.384 19.7866 155.446 20.2448C155.446 20.369 155.404 20.4282 155.322 20.4282C155.267 20.4283 155.214 20.4071 155.174 20.369C155.164 20.3646 155.153 20.3624 155.142 20.3624C155.13 20.3624 155.119 20.3646 155.109 20.369V20.1857C155.068 19.5969 155.2 19.009 155.487 18.4939C155.595 18.3248 155.745 18.1861 155.921 18.0908C156.098 17.9956 156.296 17.9471 156.496 17.9497C156.667 17.9339 156.839 17.9776 156.982 18.0735C157.125 18.1693 157.23 18.3115 157.281 18.4762C157.411 18.881 157.473 19.3049 157.464 19.7302V21.7887C157.464 21.8301 157.464 21.9188 157.464 22.0608C157.478 22.2077 157.499 22.3538 157.529 22.4985C157.553 22.6408 157.598 22.7785 157.665 22.9066C157.682 22.9579 157.715 23.0027 157.758 23.0354C157.801 23.068 157.853 23.087 157.907 23.09C157.97 23.0867 158.032 23.0663 158.085 23.0309C158.138 22.9955 158.18 22.9464 158.208 22.8889C158.288 22.7525 158.347 22.605 158.385 22.4512C158.424 22.298 158.45 22.1416 158.461 21.9839C158.461 21.836 158.461 21.7354 158.461 21.6999V19.6119C158.462 19.4694 158.472 19.3272 158.491 19.186C158.514 18.9963 158.57 18.8122 158.656 18.6418C158.76 18.4484 158.91 18.2838 159.093 18.1627C159.346 18.0069 159.64 17.9326 159.937 17.9497C160.125 17.9316 160.315 17.9592 160.491 18.0303C160.667 18.1013 160.823 18.2137 160.946 18.3579C161.169 18.6546 161.315 19.0021 161.371 19.3694C161.443 19.8039 161.488 20.2424 161.507 20.6825C161.52 21.1272 161.579 21.5693 161.684 22.0016C161.773 22.3808 161.96 22.7297 162.227 23.0131C162.395 23.161 162.592 23.2734 162.805 23.3435C163.018 23.4136 163.243 23.44 163.466 23.4213C163.729 23.4159 163.989 23.3639 164.233 23.2675C164.518 23.1589 164.776 22.9893 164.989 22.7706C165.242 22.5031 165.442 22.19 165.579 21.8478C165.75 21.4049 165.832 20.9326 165.821 20.4578V20.1265C165.821 19.9845 165.88 19.9136 165.998 19.9136C166.098 19.9136 166.151 19.9136 166.151 19.9727V20.2744C166.229 21.237 165.943 22.1938 165.349 22.954Z" fill="#142466" stroke="#142466" stroke-width="0.2304" stroke-miterlimit="10"/>
<path d="M67.557 39.4354V35.6675H69.1682C69.3271 35.667 69.4842 35.7013 69.6285 35.768C69.7644 35.8379 69.8865 35.9321 69.9885 36.0461C70.0882 36.16 70.168 36.29 70.2246 36.4305C70.2804 36.5696 70.3085 36.7183 70.3072 36.8683C70.3096 37.0386 70.2774 37.2076 70.2128 37.3651C70.1503 37.516 70.0556 37.6512 69.9354 37.7614C69.8199 37.8729 69.6776 37.9524 69.5223 37.9921L70.4311 39.4354H69.8882L69.0325 38.075H68.0351V39.4354H67.557ZM68.0351 37.6609H69.1741C69.2964 37.6618 69.4161 37.6246 69.5164 37.5544C69.616 37.4786 69.6952 37.3789 69.7465 37.2646C69.8016 37.1419 69.8298 37.0087 69.8292 36.8742C69.828 36.7404 69.7957 36.6087 69.7347 36.4897C69.6764 36.3744 69.5889 36.2765 69.481 36.2058C69.3823 36.1367 69.2649 36.0996 69.1446 36.0993H68.0351V37.6609Z" fill="#142466"/>
<path d="M72.5954 39.465C72.3345 39.4734 72.0753 39.4187 71.84 39.3053C71.641 39.2084 71.4702 39.0617 71.3443 38.8794C71.2191 38.7009 71.129 38.5002 71.0787 38.2879C71.0192 38.0601 70.9894 37.8254 70.9902 37.5899V35.6675H71.4682V37.5722C71.468 37.7529 71.4858 37.9332 71.5213 38.1104C71.558 38.2766 71.6197 38.4361 71.7043 38.5837C71.7915 38.7195 71.9112 38.8313 72.0525 38.909C72.2175 38.997 72.4027 39.0399 72.5895 39.0332C72.7801 39.0398 72.9691 38.997 73.1384 38.909C73.2797 38.8282 73.3976 38.712 73.4807 38.5718C73.5677 38.4276 73.6295 38.2696 73.6636 38.1045C73.6988 37.9293 73.7166 37.7509 73.7167 37.5722V35.6675H74.1947V37.5722C74.1959 37.8174 74.1661 38.0619 74.1062 38.2997C74.0558 38.5141 73.9613 38.7155 73.8288 38.8912C73.7022 39.07 73.5313 39.2126 73.3331 39.3053C73.1029 39.4153 72.8504 39.47 72.5954 39.465Z" fill="#142466"/>
<path d="M75.5192 36.5488V39.4354H75.0412V35.6675H75.4425L77.7442 38.6251V35.6675H78.2222V39.4354H77.7855L75.5192 36.5488Z" fill="#142466"/>
<path d="M80.458 39.4354V35.6675H82.9426V36.0934H80.936V37.3474H82.6239V37.7496H80.936V39.4354H80.458Z" fill="#142466"/>
<path d="M84.997 39.465C84.7479 39.4689 84.5012 39.4142 84.277 39.3052C84.0507 39.2043 83.8493 39.0549 83.6868 38.8675C83.5305 38.6939 83.4066 38.4936 83.3209 38.276C83.2384 38.0506 83.1964 37.8122 83.197 37.5721C83.194 37.3268 83.2402 37.0834 83.3327 36.8564C83.4198 36.6369 83.5481 36.4361 83.7105 36.2649C83.8658 36.0854 84.0567 35.9403 84.2711 35.839C84.4897 35.7319 84.7301 35.6772 84.9734 35.6793C85.2248 35.678 85.4732 35.7347 85.6993 35.8449C85.9114 35.9549 86.0999 36.1057 86.2541 36.2885C86.5653 36.6528 86.7369 37.1162 86.738 37.5958C86.74 37.8423 86.696 38.0871 86.6082 38.3174C86.5196 38.5348 86.3938 38.735 86.2364 38.9089C86.0687 39.0875 85.8684 39.2321 85.6462 39.3348C85.441 39.4223 85.22 39.4666 84.997 39.465ZM83.7105 37.5484C83.7096 37.7374 83.7395 37.9252 83.799 38.1045C83.8614 38.2774 83.9511 38.4391 84.0645 38.5836C84.1767 38.7187 84.3153 38.8294 84.4718 38.9089C84.6362 38.9928 84.8184 39.0355 85.0029 39.0331C85.1902 39.0372 85.3752 38.9923 85.54 38.903C85.6982 38.8211 85.8371 38.7061 85.9472 38.5659C86.0592 38.4223 86.1451 38.2601 86.201 38.0867C86.2594 37.9133 86.2893 37.7315 86.2895 37.5484C86.2879 37.3612 86.256 37.1754 86.195 36.9983C86.1387 36.8245 86.0484 36.6636 85.9295 36.5251C85.8202 36.3855 85.6811 36.2723 85.5223 36.1939C85.3604 36.1153 85.1828 36.0748 85.0029 36.0756C84.8146 36.073 84.6285 36.1156 84.46 36.1998C84.3017 36.2817 84.1629 36.3967 84.0528 36.537C83.9442 36.6806 83.8586 36.8402 83.799 37.0102C83.7405 37.1836 83.7106 37.3654 83.7105 37.5484Z" fill="#142466"/>
<path d="M87.431 39.4355V35.6675H89.0362C89.1952 35.6665 89.3525 35.7008 89.4966 35.7681C89.6325 35.8379 89.7545 35.9322 89.8566 36.0461C89.9563 36.16 90.0361 36.29 90.0926 36.4306C90.1484 36.5697 90.1765 36.7184 90.1753 36.8683C90.1776 37.0386 90.1455 37.2076 90.0808 37.3652C90.0184 37.516 89.9237 37.6513 89.8035 37.7615C89.688 37.8729 89.5456 37.9524 89.3903 37.9922L90.2992 39.4355H89.7622L88.9005 38.075H87.9031V39.4355H87.431ZM87.9031 37.6609H89.0421C89.1645 37.6618 89.2841 37.6246 89.3844 37.5544C89.4858 37.4804 89.5653 37.3802 89.6146 37.2646C89.6697 37.1419 89.6979 37.0088 89.6972 36.8742C89.6961 36.7404 89.6638 36.6087 89.6028 36.4897C89.5444 36.3745 89.4569 36.2766 89.349 36.2058C89.2504 36.1367 89.133 36.0996 89.0126 36.0993H87.9031V37.6609Z" fill="#142466"/>
<path d="M94.8129 36.0934H93.4968V39.4354H93.0188V36.0934H91.7263V35.6675H94.8011L94.8129 36.0934Z" fill="#142466"/>
<path d="M98.371 35.6675V39.4354H97.893V37.72H95.851V39.4354H95.373V35.6675H95.851V37.2941H97.9225V35.6675H98.371Z" fill="#142466"/>
<path d="M101.829 39.0095V39.4354H99.2791V35.6675H101.758V36.0934H99.7513V37.3119H101.522V37.7082H99.7513V39.0095H101.829Z" fill="#142466"/>
<path d="M104.759 38.8439C104.845 38.8977 104.939 38.9395 105.036 38.9681C105.171 39.0131 105.313 39.0351 105.455 39.0332C105.595 39.0375 105.735 39.0091 105.862 38.9504C105.968 38.8947 106.055 38.808 106.11 38.702C106.172 38.5697 106.21 38.4275 106.222 38.282C106.247 38.0858 106.259 37.8882 106.258 37.6905V35.6675H106.73V37.5662C106.732 37.8212 106.718 38.0761 106.689 38.3293C106.668 38.5345 106.612 38.7346 106.523 38.9208C106.44 39.0887 106.306 39.2256 106.14 39.3112C105.933 39.4151 105.704 39.464 105.473 39.4532C105.316 39.4536 105.159 39.4338 105.007 39.394C104.874 39.3543 104.749 39.2944 104.635 39.2166L104.759 38.8439Z" fill="#142466"/>
<path d="M109.116 39.465C108.866 39.4676 108.62 39.413 108.395 39.3053C108.183 39.199 107.994 39.05 107.841 38.8676C107.684 38.6939 107.56 38.4936 107.475 38.276C107.392 38.0506 107.35 37.8123 107.351 37.5721C107.348 37.3269 107.394 37.0835 107.487 36.8564C107.574 36.6383 107.7 36.4379 107.858 36.2649C108.021 36.0811 108.223 35.9356 108.449 35.839C108.667 35.7313 108.908 35.6766 109.151 35.6793C109.401 35.6774 109.647 35.7342 109.871 35.8449C110.097 35.9496 110.298 36.1008 110.461 36.2886C110.612 36.4648 110.734 36.6646 110.821 36.8801C110.99 37.3361 110.99 37.8378 110.821 38.2938C110.733 38.5126 110.605 38.7131 110.443 38.8853C110.276 39.0644 110.076 39.209 109.853 39.3112C109.622 39.4185 109.37 39.4711 109.116 39.465ZM107.829 37.5485C107.83 37.7377 107.862 37.9256 107.923 38.1045C107.981 38.2782 108.069 38.4404 108.183 38.5836C108.299 38.7176 108.439 38.828 108.596 38.909C108.762 38.9931 108.945 39.037 109.13 39.037C109.316 39.037 109.499 38.9931 109.664 38.909C109.823 38.8271 109.961 38.7121 110.072 38.5718C110.295 38.2805 110.414 37.9219 110.408 37.5544C110.408 37.3674 110.378 37.1816 110.319 37.0043C110.258 36.8326 110.168 36.6726 110.054 36.5311C109.942 36.3936 109.804 36.2808 109.647 36.1998C109.483 36.1204 109.303 36.0799 109.121 36.0815C108.935 36.0785 108.751 36.1211 108.584 36.2057C108.426 36.2877 108.287 36.4026 108.177 36.5429C108.066 36.6851 107.981 36.8451 107.923 37.0161C107.861 37.1866 107.829 37.3668 107.829 37.5485Z" fill="#142466"/>
<path d="M111.439 35.6675L112.578 37.6313L113.729 35.6675H114.248L112.82 38.0335V39.4354H112.342V38.0749L110.914 35.7089L111.439 35.6675Z" fill="#142466"/>
<path d="M117.46 39.465C117.211 39.4683 116.964 39.4136 116.74 39.3053C116.526 39.1976 116.336 39.0489 116.179 38.8676C116.025 38.6936 115.903 38.4933 115.819 38.276C115.735 38.0509 115.691 37.8126 115.69 37.5721C115.689 37.3271 115.735 37.0843 115.825 36.8564C115.917 36.6391 116.044 36.4391 116.203 36.2649C116.366 36.0811 116.567 35.9356 116.793 35.839C117.011 35.7313 117.252 35.6766 117.495 35.6793C117.745 35.6774 117.992 35.7342 118.215 35.8449C118.43 35.9517 118.619 36.1029 118.77 36.2886C118.925 36.4618 119.048 36.6624 119.13 36.8801C119.217 37.1004 119.261 37.3353 119.26 37.5721C119.26 37.8191 119.214 38.0638 119.124 38.2938C118.955 38.7443 118.622 39.114 118.192 39.3289C117.961 39.4287 117.711 39.4752 117.46 39.465ZM116.173 37.5485C116.172 37.738 116.204 37.9263 116.268 38.1045C116.326 38.2782 116.414 38.4404 116.528 38.5836C116.64 38.7188 116.778 38.8295 116.935 38.909C117.099 38.9929 117.281 39.0355 117.466 39.0332C117.655 39.0372 117.842 38.9924 118.009 38.9031C118.165 38.8211 118.302 38.706 118.41 38.5659C118.524 38.4238 118.61 38.2612 118.664 38.0868C118.722 37.9133 118.752 37.7315 118.752 37.5485C118.754 37.361 118.722 37.1747 118.658 36.9984C118.601 36.8259 118.513 36.6655 118.398 36.5252C118.287 36.3876 118.148 36.2748 117.991 36.1939C117.828 36.1145 117.648 36.074 117.466 36.0756C117.279 36.0718 117.095 36.1145 116.929 36.1998C116.771 36.2817 116.632 36.3967 116.522 36.537C116.412 36.6805 116.324 36.8401 116.262 37.0102C116.204 37.1836 116.174 37.3654 116.173 37.5485Z" fill="#142466"/>
<path d="M119.901 39.4354V35.6675H122.385V36.0934H120.379V37.3474H122.067V37.7496H120.379V39.4354H119.901Z" fill="#142466"/>
<path d="M124.181 39.4354V35.6675H125.792C125.949 35.6671 126.104 35.7015 126.246 35.768C126.383 35.8365 126.505 35.9309 126.606 36.0461C126.708 36.1585 126.788 36.2889 126.842 36.4305C126.899 36.5695 126.929 36.718 126.931 36.8683C126.931 37.039 126.897 37.208 126.831 37.3651C126.768 37.516 126.673 37.6512 126.553 37.7614C126.438 37.8729 126.295 37.9524 126.14 37.9921L127.049 39.4354H126.541L125.674 38.0749H124.682V39.4354H124.181ZM124.659 37.6609H125.798C125.919 37.6639 126.037 37.6264 126.134 37.5544C126.236 37.4803 126.315 37.3802 126.364 37.2646C126.419 37.1419 126.448 37.0087 126.447 36.8742C126.449 36.74 126.416 36.6077 126.353 36.4897C126.294 36.3762 126.209 36.2787 126.105 36.2058C126.004 36.1356 125.885 36.0984 125.762 36.0993H124.659V37.6609Z" fill="#142466"/>
<path d="M129.235 39.465C128.972 39.4732 128.711 39.4185 128.473 39.3053C128.276 39.2083 128.107 39.0615 127.983 38.8794C127.856 38.7012 127.764 38.5005 127.712 38.2879C127.654 38.0598 127.627 37.8252 127.629 37.5899V35.6675H128.101V37.5722C128.1 37.7533 128.12 37.9339 128.16 38.1104C128.192 38.2781 128.254 38.4386 128.343 38.5837C128.428 38.7192 128.546 38.8311 128.686 38.909C128.853 38.997 129.04 39.0398 129.229 39.0332C129.417 39.0404 129.605 38.9975 129.772 38.909C129.914 38.8301 130.033 38.7135 130.114 38.5718C130.203 38.4288 130.265 38.2704 130.297 38.1045C130.337 37.9299 130.357 37.7513 130.356 37.5722V35.6675H130.834V37.5722C130.835 37.8174 130.805 38.0619 130.745 38.2997C130.69 38.5124 130.596 38.713 130.468 38.8912C130.339 39.0674 130.168 39.2094 129.972 39.3053C129.742 39.4147 129.489 39.4693 129.235 39.465Z" fill="#142466"/>
<path d="M132.166 36.5488V39.4354H131.688V35.6675H132.089L134.391 38.6251V35.6675H134.869V39.4354H134.432L132.166 36.5488Z" fill="#142466"/>
<path d="M136.232 36.5488V39.4354H135.754V35.6675H136.161L138.457 38.6251V35.6675H138.929V39.4354H138.493L136.232 36.5488Z" fill="#142466"/>
<path d="M139.843 39.4354V35.6675H140.316V39.4354H139.843Z" fill="#142466"/>
<path d="M141.702 36.5488V39.4354H141.224V35.6675H141.626L143.927 38.6251V35.6675H144.405V39.4354H143.969L141.702 36.5488Z" fill="#142466"/>
<path d="M146.807 39.4656C146.567 39.4654 146.331 39.4087 146.117 39.2999C145.904 39.1924 145.714 39.046 145.556 38.8681C145.399 38.6935 145.274 38.4935 145.184 38.2766C145.097 38.0523 145.053 37.8135 145.054 37.5727C145.052 37.3242 145.096 37.0774 145.184 36.8451C145.271 36.627 145.397 36.4266 145.556 36.2536C145.71 36.0782 145.899 35.9371 146.111 35.8396C146.328 35.7366 146.566 35.6841 146.807 35.6858C147.124 35.6736 147.438 35.7537 147.71 35.9165C147.938 36.0606 148.122 36.2654 148.241 36.508L147.875 36.7623C147.78 36.5579 147.623 36.3884 147.427 36.2773C147.234 36.1699 147.016 36.1149 146.795 36.1176C146.615 36.1158 146.436 36.1584 146.276 36.2418C146.119 36.321 145.982 36.4341 145.875 36.5731C145.764 36.7151 145.678 36.8752 145.621 37.0463C145.564 37.2239 145.536 37.4097 145.538 37.5964C145.534 37.7976 145.566 37.998 145.633 38.1879C145.696 38.3612 145.79 38.5216 145.91 38.6611C146.028 38.7938 146.17 38.9023 146.329 38.9805C146.489 39.0582 146.665 39.0987 146.842 39.0988C147.05 39.0967 147.254 39.0395 147.433 38.9332C147.648 38.8026 147.836 38.632 147.987 38.4304V38.9214C147.842 39.0925 147.661 39.2298 147.457 39.3237C147.253 39.4177 147.031 39.4661 146.807 39.4656ZM147.952 37.9158H147.138V37.555H148.377V39.436H147.976L147.952 37.9158Z" fill="#142466"/>
<path d="M153.774 39.4342C153.774 39.2993 153.785 39.1646 153.81 39.0319C153.832 38.9052 153.876 38.7832 153.94 38.6711C154.008 38.5474 154.095 38.4355 154.199 38.3399C154.332 38.2203 154.479 38.1171 154.636 38.0323L154.961 37.8607C155.067 37.8075 155.167 37.7484 155.262 37.6892C155.348 37.6364 155.424 37.5682 155.486 37.4881C155.542 37.4155 155.571 37.3256 155.568 37.2337C155.568 37.1479 155.543 37.0639 155.498 36.9912C155.446 36.9093 155.372 36.8437 155.285 36.8019C155.18 36.7461 155.062 36.7196 154.943 36.725C154.845 36.7255 154.748 36.7394 154.654 36.7664C154.57 36.793 154.491 36.8308 154.418 36.8788C154.354 36.9179 154.295 36.9635 154.241 37.0149L154.111 37.145L153.816 36.8197C153.86 36.771 153.909 36.7274 153.963 36.6895C154.041 36.6229 154.126 36.5653 154.217 36.518C154.33 36.4595 154.449 36.412 154.571 36.376C154.717 36.3325 154.868 36.3106 155.02 36.311C155.223 36.3033 155.425 36.3438 155.61 36.4293C155.755 36.4969 155.88 36.6033 155.97 36.7369C156.057 36.8682 156.102 37.0229 156.1 37.1805C156.103 37.3065 156.072 37.4311 156.011 37.5413C155.953 37.6464 155.877 37.7405 155.787 37.8193C155.701 37.8954 155.608 37.9627 155.509 38.0205L155.244 38.1624L154.837 38.3813C154.738 38.4345 154.645 38.498 154.559 38.5706C154.494 38.6296 154.435 38.695 154.382 38.7658C154.337 38.8404 154.305 38.9225 154.288 39.0083H156.159V39.4342H153.774Z" fill="#142466"/>
<path d="M159.359 37.9024C159.365 38.1847 159.305 38.4646 159.182 38.7187C159.079 38.9558 158.914 39.1603 158.704 39.3102C158.498 39.4413 158.26 39.5109 158.016 39.5109C157.773 39.5109 157.534 39.4413 157.329 39.3102C157.119 39.1603 156.953 38.9558 156.851 38.7187C156.734 38.4625 156.673 38.1841 156.673 37.9024C156.673 37.6207 156.734 37.3423 156.851 37.0861C156.953 36.849 157.119 36.6445 157.329 36.4946C157.533 36.3593 157.772 36.2871 158.016 36.2871C158.261 36.2871 158.5 36.3593 158.704 36.4946C158.914 36.6445 159.079 36.849 159.182 37.0861C159.305 37.3402 159.365 37.6201 159.359 37.9024ZM158.887 37.9024C158.888 37.6998 158.85 37.4989 158.775 37.3109C158.708 37.1513 158.602 37.0109 158.468 36.9027C158.334 36.8107 158.176 36.7614 158.013 36.7614C157.851 36.7614 157.693 36.8107 157.559 36.9027C157.424 37.0109 157.319 37.1513 157.252 37.3109C157.108 37.6921 157.108 38.1127 157.252 38.4939C157.319 38.6518 157.424 38.7901 157.559 38.8961C157.693 38.9882 157.851 39.0375 158.013 39.0375C158.176 39.0375 158.334 38.9882 158.468 38.8961C158.602 38.7901 158.708 38.6518 158.775 38.4939C158.85 38.3059 158.888 38.105 158.887 37.9024Z" fill="#142466"/>
<path d="M159.872 39.4343C159.859 39.3005 159.859 39.1659 159.872 39.0321C159.894 38.9054 159.938 38.7834 160.002 38.6713C160.07 38.5475 160.157 38.4356 160.261 38.34C160.395 38.2192 160.544 38.1158 160.704 38.0324L161.023 37.8609C161.129 37.8077 161.229 37.7485 161.323 37.6894C161.41 37.6365 161.486 37.5684 161.548 37.4882C161.606 37.4162 161.637 37.3264 161.636 37.2339C161.636 37.148 161.611 37.064 161.565 36.9914C161.514 36.9095 161.44 36.8439 161.353 36.8021C161.245 36.7471 161.126 36.7206 161.005 36.7252C160.907 36.7261 160.81 36.74 160.716 36.7666C160.634 36.792 160.556 36.8299 160.485 36.879C160.42 36.9181 160.359 36.9636 160.303 37.015L160.173 37.1452L159.883 36.8198C159.927 36.7724 159.974 36.7289 160.025 36.6897C160.104 36.6244 160.189 36.567 160.279 36.5182C160.394 36.4598 160.515 36.4122 160.639 36.3762C160.782 36.3326 160.932 36.3107 161.082 36.3111C161.285 36.3028 161.487 36.3434 161.672 36.4294C161.819 36.4969 161.946 36.6032 162.038 36.737C162.12 36.87 162.163 37.024 162.162 37.1807C162.165 37.3067 162.134 37.4312 162.073 37.5415C162.017 37.6463 161.943 37.7404 161.855 37.8195C161.766 37.8943 161.671 37.9616 161.571 38.0206C161.488 38.0733 161.401 38.1207 161.312 38.1626L160.899 38.3814C160.801 38.4361 160.708 38.4994 160.621 38.5707C160.556 38.6281 160.498 38.6937 160.45 38.7659C160.403 38.8402 160.369 38.9223 160.35 39.0084H162.221V39.4343H159.872Z" fill="#142466"/>
<path d="M164.313 40.1094V39.2103H162.601V38.7962L164.449 36.4302H164.767V38.7962H165.233V39.2162H164.767V40.1153L164.313 40.1094ZM163.091 38.7903H164.36V37.1282L163.091 38.7903Z" fill="#142466"/>
</svg>
