<svg width="118" height="40" viewBox="0 0 118 40" fill="none" xmlns="http://www.w3.org/2000/svg">
<g clip-path="url(#clip0_626_320)">
<path d="M117.997 28.0371C116.842 30.0696 114.791 31.549 111.932 31.549C108.233 31.549 106.776 29.1437 106.776 24.6608V14.8819H104.389V14.848L112.998 7.33887V14.3286H117.38V14.8819H112.998V22.9106C112.998 26.9079 113.838 28.387 116.136 28.387C116.82 28.387 117.347 28.2855 117.974 28.0033L118.008 28.0371H117.997Z" fill="#6C60BB"/>
<path d="M8.89239 30.0122H11.0446V30.6105H0.261232V30.0122H2.55914V5.80202L0.00341797 3.78076H11.4481L8.89239 5.79075V30.0122ZM24.1146 30.0122V30.6105H15.3938L9.18384 17.7603L16.6941 5.75687L14.1383 3.78076H23.1394L13.4994 11.8319L22.6798 30.0122H24.1146Z" fill="#6C60BB"/>
<path d="M76.3743 29.9995H78.5266V30.5978H67.7431V29.9995H70.0412V5.78935L67.4854 3.76807H78.93L76.3743 5.77805V29.9995ZM91.5966 29.9995V30.5978H82.8757L76.6658 17.7476L84.1759 5.74418L81.6202 3.76807H90.6212L80.9813 11.8193L90.1617 29.9995H91.5966Z" fill="#6C60BB"/>
<path d="M22.6244 25.3832H24.0143V15.9431L22.4338 14.6784L29.5518 12.3522V25.3945H30.9417V25.8123H22.6356V25.3945L22.6244 25.3832ZM23.7005 9.00977C23.7005 7.30468 24.8102 6.1416 26.7718 6.1416C28.7333 6.1416 29.8431 7.30468 29.8431 9.00977C29.8431 10.7149 28.7333 11.9118 26.7718 11.9118C24.8102 11.9118 23.7005 10.7487 23.7005 9.00977Z" fill="#6C60BB"/>
<path d="M69.5438 11.7876L67.4028 13.6169L60.4644 30.1258L56.6643 39.9048L50.5888 34.9249L59.8928 29.9451L52.3488 13.6169L50.1743 11.7876H61.3945L59.2536 13.6169L62.8069 23.4635L65.8111 13.6169L63.345 11.7876H69.5438Z" fill="#6C60BB"/>
<path d="M103.675 22.8236V23.2753H96.5795V21.6492C95.2456 22.7897 93.7436 23.5688 92.1854 23.5688C90.3471 23.5688 89.0919 22.5074 89.0919 20.712C89.0919 18.0809 91.8717 16.342 96.5795 15.8225C96.5795 12.6833 95.3353 11.1025 93.1719 11.1025C91.8942 11.1025 91.0198 11.4412 90.0558 12.1865L89.9101 12.0397C91.8381 9.87164 93.934 8.69727 96.7702 8.69727C100.346 8.69727 102.24 10.7524 102.24 14.8966V22.8123H103.664L103.675 22.8236ZM96.5795 21.254V16.1952C94.8758 16.6807 94.2256 17.7648 94.2256 19.2779C94.2256 20.6216 94.7972 21.333 95.9295 21.333C96.0975 21.333 96.3218 21.3104 96.5795 21.2427V21.254Z" fill="#6C60BB"/>
<path d="M43.066 29.8089C42.0573 32.1462 40.2637 33.8402 37.764 33.8402C34.5247 33.8402 33.2581 31.0735 33.2581 25.9244V14.6889H31.1619V14.6437L38.6944 6.0166V14.0452H42.5282V14.6776H38.6944V23.8918C38.6944 28.4763 39.423 30.1814 41.4407 30.1814C42.0348 30.1814 42.5057 30.0684 43.0438 29.7412L43.066 29.7862V29.8089Z" fill="#6C60BB"/>
<path d="M54.3967 23.7697C53.298 26.1071 51.3476 27.8009 48.6238 27.8009C45.1041 27.8009 43.7142 25.0344 43.7142 19.8852V8.66098H41.4386V8.6158L49.6214 0V8.02862H53.7914V8.66098H49.6214V17.8752C49.6214 22.4598 50.4172 24.1649 52.6142 24.1649C53.2644 24.1649 53.7689 24.052 54.3631 23.7245L54.3967 23.7697Z" fill="#6C60BB"/>
<path d="M103.678 26.7192H91.5943V25.6126L103.678 24.6641V26.7192Z" fill="#6C60BB"/>
</g>
<defs>
<clipPath id="clip0_626_320">
<rect width="118" height="40" fill="white"/>
</clipPath>
</defs>
</svg>
