<?xml version="1.0" encoding="UTF-8"?>
<!DOCTYPE svg PUBLIC "-//W3C//DTD SVG 1.1//EN" "http://www.w3.org/Graphics/SVG/1.1/DTD/svg11.dtd">
<svg xmlns="http://www.w3.org/2000/svg" version="1.1" width="500px" height="121px" style="shape-rendering:geometricPrecision; text-rendering:geometricPrecision; image-rendering:optimizeQuality; fill-rule:evenodd; clip-rule:evenodd" xmlns:xlink="http://www.w3.org/1999/xlink">
<g><path style="opacity:0.016" fill="#60307e" d="M 49.5,4.5 C 51.9664,3.36594 54.633,3.19927 57.5,4C 54.854,4.49742 52.1873,4.66409 49.5,4.5 Z"/></g>
<g><path style="opacity:0.016" fill="#5a2d7d" d="M 62.5,4.5 C 64.6282,3.37086 66.9615,3.20419 69.5,4C 67.1902,4.49665 64.8568,4.66331 62.5,4.5 Z"/></g>
<g><path style="opacity:0.016" fill="#472367" d="M 49.5,4.5 C 48.7494,5.57346 47.7494,5.74012 46.5,5C 47.448,4.51722 48.448,4.35055 49.5,4.5 Z"/></g>
<g><path style="opacity:0.008" fill="#5d287e" d="M 45.5,6.5 C 44.7611,6.63101 44.0944,6.46434 43.5,6C 44.4368,5.30831 45.1034,5.47498 45.5,6.5 Z"/></g>
<g><path style="opacity:0.008" fill="#733691" d="M 73.5,6.5 C 74.2506,5.42654 75.2506,5.25988 76.5,6C 75.552,6.48278 74.552,6.64945 73.5,6.5 Z"/></g>
<g><path style="opacity:0.008" fill="#974fb2" d="M 39.5,7.5 C 39.8966,6.47498 40.5632,6.30831 41.5,7C 40.9056,7.46434 40.2389,7.63101 39.5,7.5 Z"/></g>
<g><path style="opacity:0.008" fill="#7a3b97" d="M 78.5,7.5 C 78.8966,6.47498 79.5632,6.30831 80.5,7C 79.9056,7.46434 79.2389,7.63101 78.5,7.5 Z"/></g>
<g><path style="opacity:0.999" fill="#4b0374" d="M 45.5,6.5 C 47.1667,6.5 48.8333,6.5 50.5,6.5C 56.2055,6.17124 61.8722,6.50457 67.5,7.5C 71.1688,10.6734 74.3355,14.3401 77,18.5C 78.6636,21.3271 79.8303,24.3271 80.5,27.5C 62.3936,17.8068 46.0603,20.1401 31.5,34.5C 29.5905,33.0254 28.4238,31.0254 28,28.5C 26.8436,24.5817 26.3436,20.5817 26.5,16.5C 32.4571,12.3558 38.7904,9.02247 45.5,6.5 Z"/></g>
<g><path style="opacity:0.016" fill="#61318b" d="M 84.5,9.5 C 85.8333,10.1667 85.8333,10.1667 84.5,9.5 Z"/></g>
<g><path style="opacity:0.008" fill="#5d287e" d="M 31.5,10.5 C 32.8333,11.1667 32.8333,11.1667 31.5,10.5 Z"/></g>
<g><path style="opacity:1" fill="#690468" d="M 73.5,6.5 C 77.0808,7.80726 80.7474,9.14059 84.5,10.5C 87.1305,12.1526 89.7972,13.8193 92.5,15.5C 97.1667,19.5 101.5,23.8333 105.5,28.5C 106.167,30.1667 106.833,31.8333 107.5,33.5C 99.1368,29.2421 90.4701,27.5755 81.5,28.5C 80.8333,28.5 80.5,28.1667 80.5,27.5C 79.8303,24.3271 78.6636,21.3271 77,18.5C 74.3355,14.3401 71.1688,10.6734 67.5,7.5C 61.8722,6.50457 56.2055,6.17124 50.5,6.5C 53.3596,5.7561 56.3596,5.08943 59.5,4.5C 64.1262,5.38468 68.7928,6.05135 73.5,6.5 Z"/></g>
<g><path style="opacity:0.008" fill="#5d287e" d="M 87.5,10.5 C 88.8333,11.1667 88.8333,11.1667 87.5,10.5 Z"/></g>
<g><path style="opacity:0.008" fill="#5d287e" d="M 92.5,14.5 C 93.8333,15.1667 93.8333,15.1667 92.5,14.5 Z"/></g>
<g><path style="opacity:0.008" fill="#5d287e" d="M 94.5,15.5 C 95.8333,16.1667 95.8333,16.1667 94.5,15.5 Z"/></g>
<g><path style="opacity:0.999" fill="#563987" d="M 26.5,16.5 C 26.3436,20.5817 26.8436,24.5817 28,28.5C 28.4238,31.0254 29.5905,33.0254 31.5,34.5C 23.0837,44.2564 20.0837,55.5898 22.5,68.5C 21.3794,70.9542 20.546,73.6209 20,76.5C 19.5004,83.1583 19.3337,89.825 19.5,96.5C 19.1667,96.5 18.8333,96.5 18.5,96.5C 18.5,95.8333 18.1667,95.5 17.5,95.5C 16.4884,94.1283 15.4884,92.795 14.5,91.5C 13.5254,89.2048 12.1921,87.2048 10.5,85.5C 10.6716,84.5084 10.3382,83.8417 9.5,83.5C 9.67158,82.5084 9.33825,81.8417 8.5,81.5C 8.5,80.5 8.5,79.5 8.5,78.5C 6.93992,70.5784 5.93992,62.5784 5.5,54.5C 6.14027,46.2611 8.4736,38.5945 12.5,31.5C 16.4327,25.8977 21.0994,20.8977 26.5,16.5 Z"/></g>
<g><path style="opacity:1" fill="#fcfafd" d="M 80.5,27.5 C 80.5,28.1667 80.8333,28.5 81.5,28.5C 91.0362,35.0304 96.3695,44.0304 97.5,55.5C 99.0571,71.6773 93.0571,84.1773 79.5,93C 80.5505,94.3848 81.8839,95.3848 83.5,96C 88.1838,97.6527 92.8504,98.8193 97.5,99.5C 97.1667,100.167 96.8333,100.833 96.5,101.5C 95.8333,101.5 95.5,101.833 95.5,102.5C 94.8333,102.5 94.5,102.833 94.5,103.5C 93.8333,103.5 93.5,103.833 93.5,104.5C 92.5084,104.328 91.8417,104.662 91.5,105.5C 90.8333,105.5 90.5,105.833 90.5,106.5C 89.5084,106.328 88.8417,106.662 88.5,107.5C 87.8333,107.5 87.5,107.833 87.5,108.5C 86.5084,108.328 85.8417,108.662 85.5,109.5C 83.8828,110.038 82.2161,110.371 80.5,110.5C 72.5117,108.661 65.845,104.495 60.5,98C 56.7481,97.7599 53.0814,97.2599 49.5,96.5C 35.732,91.7325 26.732,82.3992 22.5,68.5C 20.0837,55.5898 23.0837,44.2564 31.5,34.5C 46.0603,20.1401 62.3936,17.8068 80.5,27.5 Z"/></g>
<g><path style="opacity:0.016" fill="#4b256d" d="M 125.5,26.5 C 130.985,25.3483 136.651,25.1816 142.5,26C 136.843,26.4994 131.176,26.6661 125.5,26.5 Z"/></g>
<g><path style="opacity:0.016" fill="#4e2771" d="M 170.5,26.5 C 175.985,25.3483 181.651,25.1816 187.5,26C 181.843,26.4994 176.176,26.6661 170.5,26.5 Z"/></g>
<g><path style="opacity:0.016" fill="#4e2771" d="M 225.5,26.5 C 219.824,26.6661 214.157,26.4994 208.5,26C 214.349,25.1816 220.015,25.3483 225.5,26.5 Z"/></g>
<g><path style="opacity:0.016" fill="#4d266f" d="M 246.5,26.5 C 252.319,25.3475 258.319,25.1808 264.5,26C 258.509,26.4995 252.509,26.6662 246.5,26.5 Z"/></g>
<g><path style="opacity:0.016" fill="#4d2670" d="M 299.5,26.5 C 318.996,25.3376 338.662,25.1709 358.5,26C 338.836,26.5 319.169,26.6666 299.5,26.5 Z"/></g>
<g><path style="opacity:0.016" fill="#4f2772" d="M 477.5,26.5 C 482.985,25.3483 488.651,25.1816 494.5,26C 488.843,26.4994 483.176,26.6661 477.5,26.5 Z"/></g>
<g><path style="opacity:0.008" fill="#5d287e" d="M 169.5,27.5 C 168.833,26.1667 168.833,26.1667 169.5,27.5 Z"/></g>
<g><path style="opacity:0.008" fill="#5d287e" d="M 225.5,26.5 C 226.167,26.5 226.5,26.8333 226.5,27.5C 226.167,27.1667 225.833,26.8333 225.5,26.5 Z"/></g>
<g><path style="opacity:1" fill="#a00b9e" d="M 81.5,28.5 C 90.4701,27.5755 99.1368,29.2421 107.5,33.5C 107.833,33.5 108.167,33.5 108.5,33.5C 108.992,35.8185 109.992,37.8185 111.5,39.5C 111.263,40.791 111.596,41.791 112.5,42.5C 113.646,46.7536 114.313,51.087 114.5,55.5C 109.591,58.5388 104.424,61.2055 99,63.5C 98.8171,60.6353 98.3171,57.9686 97.5,55.5C 96.3695,44.0304 91.0362,35.0304 81.5,28.5 Z"/></g>
<g><path style="opacity:0.008" fill="#5d287e" d="M 105.5,27.5 C 106.833,28.1667 106.833,28.1667 105.5,27.5 Z"/></g>
<g><path style="opacity:0.967" fill="#4b276c" d="M 263.5,27.5 C 263.5,45.5 263.5,63.5 263.5,81.5C 274.833,81.5 286.167,81.5 297.5,81.5C 297.5,86.1667 297.5,90.8333 297.5,95.5C 280.5,95.5 263.5,95.5 246.5,95.5C 246.5,72.8333 246.5,50.1667 246.5,27.5C 252.167,27.5 257.833,27.5 263.5,27.5 Z"/></g>
<g><path style="opacity:0.008" fill="#5d287e" d="M 123.5,28.5 C 124.66,41.3268 124.827,54.3268 124,67.5C 123.5,54.5043 123.333,41.5043 123.5,28.5 Z"/></g>
<g><path style="opacity:0.996" fill="#4b266c" d="M 148.5,78.5 C 149.209,79.404 150.209,79.7373 151.5,79.5C 154.833,80.8333 158.167,80.8333 161.5,79.5C 165.167,79.1667 167.167,77.1667 167.5,73.5C 168.268,72.7375 168.768,71.7375 169,70.5C 169.5,56.1705 169.667,41.8372 169.5,27.5C 175.5,27.5 181.5,27.5 187.5,27.5C 187.5,41.8333 187.5,56.1667 187.5,70.5C 186.343,73.2727 185.676,76.2727 185.5,79.5C 184.662,79.8417 184.328,80.5084 184.5,81.5C 183.662,81.8417 183.328,82.5084 183.5,83.5C 182.833,83.5 182.5,83.8333 182.5,84.5C 181.599,85.2905 180.932,86.2905 180.5,87.5C 179.833,87.5 179.5,87.8333 179.5,88.5C 178.833,88.5 178.5,88.8333 178.5,89.5C 175.797,91.1807 173.131,92.8474 170.5,94.5C 169.209,94.2627 168.209,94.596 167.5,95.5C 166.209,95.2627 165.209,95.596 164.5,96.5C 157.798,96.6643 151.131,96.331 144.5,95.5C 142.491,93.9348 140.157,92.9348 137.5,92.5C 135.833,90.1667 133.833,88.1667 131.5,86.5C 130.154,84.4632 128.82,82.4632 127.5,80.5C 127.737,79.209 127.404,78.209 126.5,77.5C 125.543,60.8682 125.21,44.2015 125.5,27.5C 131.5,27.5 137.5,27.5 143.5,27.5C 143.333,42.5037 143.5,57.5037 144,72.5C 144.792,75.1064 146.292,77.1064 148.5,78.5 Z"/></g>
<g><path style="opacity:0.016" fill="#4f2772" d="M 168.5,27.5 C 168.667,41.504 168.5,55.504 168,69.5C 167.173,55.3272 167.339,41.3272 168.5,27.5 Z"/></g>
<g><path style="opacity:0.008" fill="#361b4d" d="M 205.5,27.5 C 206.663,49.6629 206.83,71.9962 206,94.5C 205.5,72.1692 205.333,49.8358 205.5,27.5 Z"/></g>
<g><path style="opacity:0.016" fill="#4e2771" d="M 226.5,27.5 C 227.663,49.6629 227.83,71.9962 227,94.5C 226.5,72.1692 226.333,49.8358 226.5,27.5 Z"/></g>
<g><path style="opacity:0.008" fill="#5d287e" d="M 244.5,28.5 C 245.663,50.3295 245.83,72.3295 245,94.5C 244.5,72.5025 244.333,50.5025 244.5,28.5 Z"/></g>
<g><path style="opacity:0.016" fill="#61308a" d="M 475.5,27.5 C 476.663,49.6629 476.83,71.9962 476,94.5C 475.5,72.1692 475.333,49.8358 475.5,27.5 Z"/></g>
<g><path style="opacity:0.008" fill="#421f5c" d="M 496.5,27.5 C 497.525,27.8966 497.692,28.5632 497,29.5C 496.536,28.9056 496.369,28.2389 496.5,27.5 Z"/></g>
<g><path style="opacity:0.985" fill="#4a266b" d="M 225.5,27.5 C 225.5,50.1667 225.5,72.8333 225.5,95.5C 219.5,95.5 213.5,95.5 207.5,95.5C 207.5,72.8333 207.5,50.1667 207.5,27.5C 213.5,27.5 219.5,27.5 225.5,27.5 Z"/></g>
<g><path style="opacity:0.983" fill="#4e2870" d="M 321.5,95.5 C 321.5,77.5 321.5,59.5 321.5,41.5C 314.167,41.5 306.833,41.5 299.5,41.5C 299.5,36.8333 299.5,32.1667 299.5,27.5C 319.167,27.5 338.833,27.5 358.5,27.5C 358.5,32.5 358.5,37.5 358.5,42.5C 351.5,42.5 344.5,42.5 337.5,42.5C 337.5,60.1667 337.5,77.8333 337.5,95.5C 332.167,95.5 326.833,95.5 321.5,95.5 Z"/></g>
<g><path style="opacity:0.008" fill="#682f87" d="M 359.5,27.5 C 360.648,31.9811 360.815,36.6478 360,41.5C 359.501,36.8452 359.334,32.1785 359.5,27.5 Z"/></g>
<g><path style="opacity:0.008" fill="#884aa0" d="M 415.5,30.5 C 414.475,30.1034 414.308,29.4368 415,28.5C 415.464,29.0944 415.631,29.7611 415.5,30.5 Z"/></g>
<g><path style="opacity:0.985" fill="#4b266b" d="M 436.5,30.5 C 436.402,32.5529 437.069,34.2196 438.5,35.5C 438.992,37.8185 439.992,39.8185 441.5,41.5C 442.042,44.9122 443.375,47.9122 445.5,50.5C 446.042,53.9122 447.375,56.9122 449.5,59.5C 450.042,62.9122 451.375,65.9122 453.5,68.5C 454.376,72.5821 456.043,76.2488 458.5,79.5C 459.042,82.9122 460.375,85.9122 462.5,88.5C 462.402,90.5529 463.069,92.2196 464.5,93.5C 461.742,94.8182 458.576,95.4848 455,95.5C 451.833,95.1667 448.667,94.8333 445.5,94.5C 445.006,92.9745 444.339,91.6412 443.5,90.5C 443.672,89.5084 443.338,88.8417 442.5,88.5C 442.672,87.5084 442.338,86.8417 441.5,86.5C 441.579,85.0695 441.246,83.7362 440.5,82.5C 430.851,81.3345 421.184,81.1679 411.5,82C 420.833,82.3333 430.167,82.6667 439.5,83C 429.91,82.899 420.577,83.7324 411.5,85.5C 411.167,82.8333 410.833,82.8333 410.5,85.5C 409.662,85.8417 409.328,86.5084 409.5,87.5C 408.069,88.7804 407.402,90.4471 407.5,92.5C 406.596,93.209 406.263,94.209 406.5,95.5C 400.167,95.5 393.833,95.5 387.5,95.5C 388.787,92.5939 389.787,89.5939 390.5,86.5C 392.625,83.9122 393.958,80.9122 394.5,77.5C 395.338,77.1583 395.672,76.4916 395.5,75.5C 397.293,73.5739 398.293,71.2406 398.5,68.5C 399.338,68.1583 399.672,67.4916 399.5,66.5C 401.293,64.5739 402.293,62.2406 402.5,59.5C 404.957,56.2488 406.624,52.5821 407.5,48.5C 409.625,45.9122 410.958,42.9122 411.5,39.5C 413.625,36.9122 414.958,33.9122 415.5,30.5C 416.267,29.828 416.934,28.9947 417.5,28C 423.167,27.3333 428.833,27.3333 434.5,28C 435.066,28.9947 435.733,29.828 436.5,30.5 Z M 425.5,49.5 C 425.833,52.1667 426.167,52.1667 426.5,49.5C 428.02,51.8902 429.02,54.5568 429.5,57.5C 428.535,58.7211 428.702,60.0544 430,61.5C 430.464,60.9056 430.631,60.2389 430.5,59.5C 431.931,60.7804 432.598,62.4471 432.5,64.5C 432.167,64.5 431.833,64.5 431.5,64.5C 427.364,66.1761 422.864,67.1761 418,67.5C 417.652,65.8602 418.152,64.5268 419.5,63.5C 419.369,64.2389 419.536,64.9056 420,65.5C 421.298,64.0544 421.465,62.7211 420.5,61.5C 420.402,59.4471 421.069,57.7804 422.5,56.5C 422.369,57.2389 422.536,57.9056 423,58.5C 424.298,57.0544 424.465,55.7211 423.5,54.5C 423.402,52.4471 424.069,50.7804 425.5,49.5 Z"/></g>
<g><path style="opacity:0.016" fill="#532775" d="M 437.5,30.5 C 437.167,30.5 436.833,30.5 436.5,30.5C 436.833,27.8333 437.167,27.8333 437.5,30.5 Z"/></g>
<g><path style="opacity:0.986" fill="#4b266d" d="M 477.5,27.5 C 483.5,27.5 489.5,27.5 495.5,27.5C 495.5,50.1667 495.5,72.8333 495.5,95.5C 489.5,95.5 483.5,95.5 477.5,95.5C 477.5,72.8333 477.5,50.1667 477.5,27.5 Z"/></g>
<g><path style="opacity:0.008" fill="#b565ce" d="M 12.5,31.5 C 11.8333,30.1667 11.8333,30.1667 12.5,31.5 Z"/></g>
<g><path style="opacity:0.008" fill="#5d287e" d="M 437.5,30.5 C 438.525,30.8966 438.692,31.5632 438,32.5C 437.536,31.9056 437.369,31.2389 437.5,30.5 Z"/></g>
<g><path style="opacity:0.016" fill="#602e86" d="M 109.5,33.5 C 109.167,33.5 108.833,33.5 108.5,33.5C 108.833,30.8333 109.167,30.8333 109.5,33.5 Z"/></g>
<g><path style="opacity:0.008" fill="#b565ce" d="M 109.5,33.5 C 110.833,34.1667 110.833,34.1667 109.5,33.5 Z"/></g>
<g><path style="opacity:0.008" fill="#5d287e" d="M 438.5,34.5 C 439.833,35.1667 439.833,35.1667 438.5,34.5 Z"/></g>
<g><path style="opacity:0.008" fill="#b565ce" d="M 110.5,35.5 C 111.833,36.1667 111.833,36.1667 110.5,35.5 Z"/></g>
<g><path style="opacity:0.016" fill="#61318b" d="M 111.5,38.5 C 112.833,39.1667 112.833,39.1667 111.5,38.5 Z"/></g>
<g><path style="opacity:0.008" fill="#884aa0" d="M 411.5,39.5 C 410.475,39.1034 410.308,38.4368 411,37.5C 411.464,38.0944 411.631,38.7611 411.5,39.5 Z"/></g>
<g><path style="opacity:0.008" fill="#b565ce" d="M 6.5,39.5 C 7.83333,40.1667 7.83333,40.1667 6.5,39.5 Z"/></g>
<g><path style="opacity:1" fill="#6609a8" d="M 79.5,66.5 C 65.8932,66.2427 53.8932,61.7427 43.5,53C 42.6198,51.6439 42.2865,50.1439 42.5,48.5C 54.1796,35.2416 66.0129,35.2416 78,48.5C 81.7927,54.4198 82.2927,60.4198 79.5,66.5 Z"/></g>
<g><path style="opacity:0.016" fill="#602e86" d="M 441.5,41.5 C 441.369,40.7611 441.536,40.0944 442,39.5C 442.692,40.4368 442.525,41.1034 441.5,41.5 Z"/></g>
<g><path style="opacity:0.008" fill="#9953b7" d="M 113.5,42.5 C 113.167,42.5 112.833,42.5 112.5,42.5C 112.833,39.8333 113.167,39.8333 113.5,42.5 Z"/></g>
<g><path style="opacity:0.655" fill="#2e1840" d="M 299.5,41.5 C 306.833,41.5 314.167,41.5 321.5,41.5C 321.5,59.5 321.5,77.5 321.5,95.5C 320.169,87.1934 319.502,78.5267 319.5,69.5C 319.507,60.5914 319.84,51.7581 320.5,43C 313.321,42.8285 306.321,42.3285 299.5,41.5 Z"/></g>
<g><path style="opacity:0.016" fill="#602e86" d="M 113.5,42.5 C 114.525,42.8966 114.692,43.5632 114,44.5C 113.536,43.9056 113.369,43.2389 113.5,42.5 Z"/></g>
<g><path style="opacity:0.008" fill="#b565ce" d="M 338.5,43.5 C 339.662,60.3283 339.828,77.3283 339,94.5C 338.5,77.5033 338.333,60.5033 338.5,43.5 Z"/></g>
<g><path style="opacity:0.008" fill="#974fb2" d="M 114.5,45.5 C 115.525,45.8966 115.692,46.5632 115,47.5C 114.536,46.9056 114.369,46.2389 114.5,45.5 Z"/></g>
<g><path style="opacity:0.008" fill="#884aa0" d="M 407.5,48.5 C 407.167,48.5 406.833,48.5 406.5,48.5C 406.833,45.8333 407.167,45.8333 407.5,48.5 Z"/></g>
<g><path style="opacity:0.008" fill="#5d287e" d="M 406.5,48.5 C 405.833,49.1667 405.833,49.1667 406.5,48.5 Z"/></g>
<g><path style="opacity:0.008" fill="#5d287e" d="M 445.5,50.5 C 445.369,49.7611 445.536,49.0944 446,48.5C 446.692,49.4368 446.525,50.1034 445.5,50.5 Z"/></g>
<g><path style="opacity:1" fill="#762bb3" d="M 42.5,48.5 C 42.2865,50.1439 42.6198,51.6439 43.5,53C 53.8932,61.7427 65.8932,66.2427 79.5,66.5C 78.057,71.6172 75.057,75.6172 70.5,78.5C 69.7792,76.314 69.1125,74.1474 68.5,72C 62.8431,71.5006 57.1764,71.3339 51.5,71.5C 51.8076,73.924 51.4742,76.2573 50.5,78.5C 40.1328,72.7483 36.6328,64.0816 40,52.5C 40.6082,50.9336 41.4415,49.6002 42.5,48.5 Z"/></g>
<g><path style="opacity:0.008" fill="#5d287e" d="M 2.5,55.5 C 3.52502,55.8966 3.69169,56.5632 3,57.5C 2.53566,56.9056 2.36899,56.2389 2.5,55.5 Z"/></g>
<g><path style="opacity:0.008" fill="#9d54b8" d="M 115.5,52.5 C 116.648,56.9811 116.815,61.6478 116,66.5C 115.501,61.8452 115.334,57.1785 115.5,52.5 Z"/></g>
<g><path style="opacity:0.999" fill="#ab5eab" d="M 97.5,55.5 C 98.3171,57.9686 98.8171,60.6353 99,63.5C 104.424,61.2055 109.591,58.5388 114.5,55.5C 114.609,62.1961 114.276,68.8627 113.5,75.5C 112.662,75.8417 112.328,76.5084 112.5,77.5C 111.596,78.209 111.263,79.209 111.5,80.5C 110.069,81.7804 109.402,83.4471 109.5,85.5C 108.833,85.5 108.5,85.8333 108.5,86.5C 107.662,86.8417 107.328,87.5084 107.5,88.5C 106.599,89.2905 105.932,90.2905 105.5,91.5C 104.094,91.9731 103.427,92.9731 103.5,94.5C 102.833,94.5 102.5,94.8333 102.5,95.5C 101.833,95.5 101.5,95.8333 101.5,96.5C 100.833,96.5 100.5,96.8333 100.5,97.5C 99.8333,97.5 99.5,97.8333 99.5,98.5C 98.8333,98.8333 98.1667,99.1667 97.5,99.5C 92.8504,98.8193 88.1838,97.6527 83.5,96C 81.8839,95.3848 80.5505,94.3848 79.5,93C 93.0571,84.1773 99.0571,71.6773 97.5,55.5 Z"/></g>
<g><path style="opacity:0.008" fill="#974fb2" d="M 402.5,59.5 C 401.475,59.1034 401.308,58.4368 402,57.5C 402.464,58.0944 402.631,58.7611 402.5,59.5 Z"/></g>
<g><path style="opacity:0.016" fill="#532775" d="M 449.5,59.5 C 449.369,58.7611 449.536,58.0944 450,57.5C 450.692,58.4368 450.525,59.1034 449.5,59.5 Z"/></g>
<g><path style="opacity:0.008" fill="#b565ce" d="M 450.5,60.5 C 451.833,61.1667 451.833,61.1667 450.5,60.5 Z"/></g>
<g><path style="opacity:0.008" fill="#5d287e" d="M 2.5,63.5 C 3.52502,63.8966 3.69169,64.5632 3,65.5C 2.53566,64.9056 2.36899,64.2389 2.5,63.5 Z"/></g>
<g><path style="opacity:0.524" fill="#361e4d" d="M 5.5,54.5 C 5.93992,62.5784 6.93992,70.5784 8.5,78.5C 7.83333,77.5 7.16667,76.5 6.5,75.5C 6.76781,73.901 6.43448,72.5676 5.5,71.5C 4.50093,65.6716 4.50093,60.005 5.5,54.5 Z"/></g>
<g><path style="opacity:0.008" fill="#884aa0" d="M 399.5,66.5 C 398.475,66.1034 398.308,65.4368 399,64.5C 399.464,65.0944 399.631,65.7611 399.5,66.5 Z"/></g>
<g><path style="opacity:0.008" fill="#5d287e" d="M 115.5,67.5 C 116.833,68.1667 116.833,68.1667 115.5,67.5 Z"/></g>
<g><path style="opacity:0.008" fill="#b565ce" d="M 398.5,68.5 C 397.833,67.1667 397.833,67.1667 398.5,68.5 Z"/></g>
<g><path style="opacity:0.016" fill="#532775" d="M 454.5,68.5 C 454.167,68.5 453.833,68.5 453.5,68.5C 453.833,65.8333 454.167,65.8333 454.5,68.5 Z"/></g>
<g><path style="opacity:0.008" fill="#2d173b" d="M 188.5,70.5 C 188.333,56.1628 188.5,41.8295 189,27.5C 189.827,42.0059 189.661,56.3393 188.5,70.5 Z"/></g>
<g><path style="opacity:0.008" fill="#5d287e" d="M 454.5,68.5 C 455.525,68.8966 455.692,69.5632 455,70.5C 454.536,69.9056 454.369,69.2389 454.5,68.5 Z"/></g>
<g><path style="opacity:0.008" fill="#612d81" d="M 4.5,71.5 C 3.38705,70.0536 3.22039,68.3869 4,66.5C 4.49351,68.1341 4.66018,69.8008 4.5,71.5 Z"/></g>
<g><path style="opacity:0.008" fill="#5d287e" d="M 144.5,69.5 C 145.833,70.1667 145.833,70.1667 144.5,69.5 Z"/></g>
<g><path style="opacity:0.008" fill="#733691" d="M 167.5,73.5 C 166.427,72.7494 166.26,71.7494 167,70.5C 167.483,71.448 167.649,72.448 167.5,73.5 Z"/></g>
<g><path style="opacity:0.016" fill="#562b7a" d="M 4.5,71.5 C 4.83333,71.5 5.16667,71.5 5.5,71.5C 5.16667,75.5 4.83333,75.5 4.5,71.5 Z"/></g>
<g><path style="opacity:0.008" fill="#b565ce" d="M 114.5,72.5 C 115.525,72.8966 115.692,73.5632 115,74.5C 114.536,73.9056 114.369,73.2389 114.5,72.5 Z"/></g>
<g><path style="opacity:1" fill="#772db3" d="M 22.5,68.5 C 26.732,82.3992 35.732,91.7325 49.5,96.5C 41.3077,99.9914 32.6411,101.325 23.5,100.5C 21.8333,99.5 20.5,98.1667 19.5,96.5C 19.3337,89.825 19.5004,83.1583 20,76.5C 20.546,73.6209 21.3794,70.9542 22.5,68.5 Z"/></g>
<g><path style="opacity:0.008" fill="#582a76" d="M 187.5,70.5 C 187.833,70.5 188.167,70.5 188.5,70.5C 188.167,77.1667 187.833,77.1667 187.5,70.5 Z"/></g>
<g><path style="opacity:0.016" fill="#522975" d="M 395.5,75.5 C 394.475,75.1034 394.308,74.4368 395,73.5C 395.464,74.0944 395.631,74.7611 395.5,75.5 Z"/></g>
<g><path style="opacity:0.008" fill="#5d287e" d="M 6.5,75.5 C 6.63101,76.2389 6.46434,76.9056 6,77.5C 5.30831,76.5632 5.47498,75.8966 6.5,75.5 Z"/></g>
<g><path style="opacity:0.008" fill="#7a3b97" d="M 113.5,75.5 C 114.833,76.1667 114.833,76.8333 113.5,77.5C 113.5,76.8333 113.5,76.1667 113.5,75.5 Z"/></g>
<g><path style="opacity:0.008" fill="#421f5c" d="M 125.5,77.5 C 124.475,77.1034 124.308,76.4368 125,75.5C 125.464,76.0944 125.631,76.7611 125.5,77.5 Z"/></g>
<g><path style="opacity:0.008" fill="#5d287e" d="M 186.5,76.5 C 187.833,77.1667 187.833,77.1667 186.5,76.5 Z"/></g>
<g><path style="opacity:0.008" fill="#5d287e" d="M 365.5,76.5 C 366.833,77.1667 366.833,77.1667 365.5,76.5 Z"/></g>
<g><path style="opacity:0.008" fill="#5d287e" d="M 394.5,77.5 C 393.833,76.1667 393.833,76.1667 394.5,77.5 Z"/></g>
<g><path style="opacity:0.008" fill="#b565ce" d="M 148.5,77.5 C 149.833,78.1667 149.833,78.1667 148.5,77.5 Z"/></g>
<g><path style="opacity:0.008" fill="#b565ce" d="M 265.5,77.5 C 275.757,78.3095 286.09,78.8095 296.5,79C 291.333,79.1667 286.167,79.3333 281,79.5C 275.454,79.4946 270.288,78.8279 265.5,77.5 Z"/></g>
<g><path style="opacity:0.008" fill="#5d287e" d="M 458.5,79.5 C 458.369,78.7611 458.536,78.0944 459,77.5C 459.692,78.4368 459.525,79.1034 458.5,79.5 Z"/></g>
<g><path style="opacity:0.016" fill="#7d41a0" d="M 112.5,77.5 C 112.833,77.5 113.167,77.5 113.5,77.5C 113.167,80.1667 112.833,80.1667 112.5,77.5 Z"/></g>
<g><path style="opacity:0.016" fill="#6b358a" d="M 125.5,77.5 C 125.833,77.5 126.167,77.5 126.5,77.5C 126.5,78.5 126.5,79.5 126.5,80.5C 125.596,79.791 125.263,78.791 125.5,77.5 Z"/></g>
<g><path style="opacity:0.008" fill="#552b6e" d="M 151.5,79.5 C 152.601,78.4017 153.934,78.235 155.5,79C 154.207,79.49 152.873,79.6567 151.5,79.5 Z"/></g>
<g><path style="opacity:0.008" fill="#673285" d="M 161.5,79.5 C 160.127,79.6567 158.793,79.49 157.5,79C 159.066,78.235 160.399,78.4017 161.5,79.5 Z"/></g>
<g><path style="opacity:0.008" fill="#b565ce" d="M 358.5,78.5 C 359.833,79.1667 359.833,79.1667 358.5,78.5 Z"/></g>
<g><path style="opacity:0.008" fill="#b565ce" d="M 185.5,79.5 C 186.833,80.1667 186.833,80.1667 185.5,79.5 Z"/></g>
<g><path style="opacity:0.008" fill="#7a3b97" d="M 7.5,81.5 C 6.47498,81.1034 6.30831,80.4368 7,79.5C 7.46434,80.0944 7.63101,80.7611 7.5,81.5 Z"/></g>
<g><path style="opacity:0.016" fill="#4d2771" d="M 126.5,80.5 C 126.833,80.5 127.167,80.5 127.5,80.5C 127.315,81.1701 126.981,81.1701 126.5,80.5 Z"/></g>
<g><path style="opacity:0.443" fill="#381a4f" d="M 263.5,27.5 C 264.497,44.9921 264.83,62.6588 264.5,80.5C 275.679,80.1721 286.679,80.5054 297.5,81.5C 286.167,81.5 274.833,81.5 263.5,81.5C 263.5,63.5 263.5,45.5 263.5,27.5 Z"/></g>
<g><path style="opacity:0.008" fill="#5f2b82" d="M 111.5,80.5 C 112.525,80.8966 112.692,81.5632 112,82.5C 111.536,81.9056 111.369,81.2389 111.5,80.5 Z"/></g>
<g><path style="opacity:0.997" fill="#a45298" d="M 373.5,84.5 C 373.5,86.1667 373.5,87.8333 373.5,89.5C 372.662,89.8417 372.328,90.5084 372.5,91.5C 371.833,91.5 371.5,91.8333 371.5,92.5C 370.833,92.5 370.5,92.8333 370.5,93.5C 369.29,93.9321 368.29,94.5987 367.5,95.5C 365.833,95.5 364.167,95.5 362.5,95.5C 360.525,93.863 358.525,92.1964 356.5,90.5C 356.5,88.1667 356.5,85.8333 356.5,83.5C 362.568,76.5783 368.235,76.9116 373.5,84.5 Z"/></g>
<g><path style="opacity:0.008" fill="#5d3175" d="M 7.5,81.5 C 7.83333,81.5 8.16667,81.5 8.5,81.5C 8.5,82.1667 8.5,82.8333 8.5,83.5C 7.66175,83.1583 7.32842,82.4916 7.5,81.5 Z"/></g>
<g><path style="opacity:0.008" fill="#39194e" d="M 184.5,81.5 C 185.833,82.1667 185.833,82.8333 184.5,83.5C 184.5,82.8333 184.5,82.1667 184.5,81.5 Z"/></g>
<g><path style="opacity:0.008" fill="#5c277d" d="M 298.5,81.5 C 299.647,85.6463 299.814,89.9796 299,94.5C 298.501,90.1794 298.334,85.8461 298.5,81.5 Z"/></g>
<g><path style="opacity:0.008" fill="#b565ce" d="M 356.5,83.5 C 355.833,82.1667 355.833,82.1667 356.5,83.5 Z"/></g>
<g><path style="opacity:0.008" fill="#b565ce" d="M 373.5,84.5 C 373.369,83.7611 373.536,83.0944 374,82.5C 374.692,83.4368 374.525,84.1034 373.5,84.5 Z"/></g>
<g><path style="opacity:0.016" fill="#4d2771" d="M 183.5,83.5 C 183.833,83.5 184.167,83.5 184.5,83.5C 184.315,84.1701 183.981,84.1701 183.5,83.5 Z"/></g>
<g><path style="opacity:0.008" fill="#5f2b82" d="M 8.5,83.5 C 8.83333,83.5 9.16667,83.5 9.5,83.5C 9.5,84.1667 9.5,84.8333 9.5,85.5C 8.66175,85.1583 8.32842,84.4916 8.5,83.5 Z"/></g>
<g><path style="opacity:0.008" fill="#b565ce" d="M 182.5,84.5 C 182.833,84.5 183.167,84.5 183.5,84.5C 183.315,85.1701 182.981,85.1701 182.5,84.5 Z"/></g>
<g><path style="opacity:0.008" fill="#5d287e" d="M 440.5,86.5 C 439.475,86.1034 439.308,85.4368 440,84.5C 440.464,85.0944 440.631,85.7611 440.5,86.5 Z"/></g>
<g><path style="opacity:0.008" fill="#281239" d="M 9.5,85.5 C 9.83333,85.5 10.1667,85.5 10.5,85.5C 10.3147,86.1701 9.98135,86.1701 9.5,85.5 Z"/></g>
<g><path style="opacity:0.008" fill="#b565ce" d="M 109.5,85.5 C 110.833,86.1667 110.833,86.1667 109.5,85.5 Z"/></g>
<g><path style="opacity:0.008" fill="#884aa0" d="M 390.5,86.5 C 389.475,86.1034 389.308,85.4368 390,84.5C 390.464,85.0944 390.631,85.7611 390.5,86.5 Z"/></g>
<g><path style="opacity:0.008" fill="#8945a5" d="M 374.5,85.5 C 375.573,86.2506 375.74,87.2506 375,88.5C 374.517,87.552 374.351,86.552 374.5,85.5 Z"/></g>
<g><path style="opacity:0.008" fill="#582779" d="M 410.5,85.5 C 410.833,85.5 411.167,85.5 411.5,85.5C 411.672,86.4916 411.338,87.1583 410.5,87.5C 410.5,86.8333 410.5,86.1667 410.5,85.5 Z"/></g>
<g><path style="opacity:0.008" fill="#7a3b97" d="M 108.5,86.5 C 108.833,86.5 109.167,86.5 109.5,86.5C 109.672,87.4916 109.338,88.1583 108.5,88.5C 108.5,87.8333 108.5,87.1667 108.5,86.5 Z"/></g>
<g><path style="opacity:0.008" fill="#5d3175" d="M 131.5,86.5 C 131.5,87.1667 131.5,87.8333 131.5,88.5C 130.167,87.8333 130.167,87.1667 131.5,86.5 Z"/></g>
<g><path style="opacity:0.008" fill="#5d287e" d="M 180.5,87.5 C 181.833,88.1667 181.833,88.1667 180.5,87.5 Z"/></g>
<g><path style="opacity:0.008" fill="#5d287e" d="M 409.5,87.5 C 409.833,87.5 410.167,87.5 410.5,87.5C 410.315,88.1701 409.981,88.1701 409.5,87.5 Z"/></g>
<g><path style="opacity:0.008" fill="#442260" d="M 440.5,86.5 C 440.833,86.5 441.167,86.5 441.5,86.5C 441.5,87.1667 441.5,87.8333 441.5,88.5C 440.662,88.1583 440.328,87.4916 440.5,86.5 Z"/></g>
<g><path style="opacity:0.016" fill="#602e86" d="M 462.5,88.5 C 462.369,87.7611 462.536,87.0944 463,86.5C 463.692,87.4368 463.525,88.1034 462.5,88.5 Z"/></g>
<g><path style="opacity:0.008" fill="#b565ce" d="M 107.5,88.5 C 107.833,88.5 108.167,88.5 108.5,88.5C 108.315,89.1701 107.981,89.1701 107.5,88.5 Z"/></g>
<g><path style="opacity:0.008" fill="#5d287e" d="M 131.5,88.5 C 132.833,89.1667 132.833,89.1667 131.5,88.5 Z"/></g>
<g><path style="opacity:0.008" fill="#281239" d="M 179.5,88.5 C 179.833,88.5 180.167,88.5 180.5,88.5C 180.315,89.1701 179.981,89.1701 179.5,88.5 Z"/></g>
<g><path style="opacity:0.008" fill="#351b4d" d="M 11.5,89.5 C 12.8333,90.1667 12.8333,90.1667 11.5,89.5 Z"/></g>
<g><path style="opacity:0.008" fill="#351b4d" d="M 178.5,89.5 C 178.833,89.5 179.167,89.5 179.5,89.5C 179.315,90.1701 178.981,90.1701 178.5,89.5 Z"/></g>
<g><path style="opacity:0.008" fill="#b565ce" d="M 373.5,89.5 C 374.833,90.1667 374.833,90.1667 373.5,89.5 Z"/></g>
<g><path style="opacity:0.008" fill="#3d1e58" d="M 441.5,88.5 C 441.833,88.5 442.167,88.5 442.5,88.5C 442.5,89.1667 442.5,89.8333 442.5,90.5C 441.662,90.1583 441.328,89.4916 441.5,88.5 Z"/></g>
<g><path style="opacity:0.008" fill="#b565ce" d="M 356.5,90.5 C 355.833,91.1667 355.833,91.1667 356.5,90.5 Z"/></g>
<g><path style="opacity:0.008" fill="#5d287e" d="M 442.5,90.5 C 442.833,90.5 443.167,90.5 443.5,90.5C 443.167,93.1667 442.833,93.1667 442.5,90.5 Z"/></g>
<g><path style="opacity:0.008" fill="#b565ce" d="M 105.5,91.5 C 106.833,92.1667 106.833,92.1667 105.5,91.5 Z"/></g>
<g><path style="opacity:0.008" fill="#b565ce" d="M 372.5,91.5 C 373.833,92.1667 373.833,92.1667 372.5,91.5 Z"/></g>
<g><path style="opacity:0.008" fill="#7a3b97" d="M 14.5,91.5 C 14.631,92.2389 14.4643,92.9056 14,93.5C 13.3083,92.5632 13.475,91.8966 14.5,91.5 Z"/></g>
<g><path style="opacity:0.008" fill="#5d287e" d="M 137.5,92.5 C 136.833,93.1667 136.833,93.1667 137.5,92.5 Z"/></g>
<g><path style="opacity:0.008" fill="#b565ce" d="M 371.5,92.5 C 371.833,92.5 372.167,92.5 372.5,92.5C 372.315,93.1701 371.981,93.1701 371.5,92.5 Z"/></g>
<g><path style="opacity:0.016" fill="#61318b" d="M 465.5,93.5 C 464.833,92.1667 464.833,92.1667 465.5,93.5 Z"/></g>
<g><path style="opacity:0.008" fill="#b565ce" d="M 104.5,93.5 C 105.833,94.1667 105.833,94.1667 104.5,93.5 Z"/></g>
<g><path style="opacity:0.008" fill="#b565ce" d="M 370.5,93.5 C 370.833,93.5 371.167,93.5 371.5,93.5C 371.315,94.1701 370.981,94.1701 370.5,93.5 Z"/></g>
<g><path style="opacity:0.008" fill="#542b66" d="M 407.5,92.5 C 408.525,92.8966 408.692,93.5632 408,94.5C 407.536,93.9056 407.369,93.2389 407.5,92.5 Z"/></g>
<g><path style="opacity:0.008" fill="#5d287e" d="M 465.5,93.5 C 466.525,93.8966 466.692,94.5632 466,95.5C 465.536,94.9056 465.369,94.2389 465.5,93.5 Z"/></g>
<g><path style="opacity:0.008" fill="#b565ce" d="M 103.5,94.5 C 103.833,94.5 104.167,94.5 104.5,94.5C 104.315,95.1701 103.981,95.1701 103.5,94.5 Z"/></g>
<g><path style="opacity:0.008" fill="#351b4d" d="M 170.5,94.5 C 171.833,95.1667 171.833,95.1667 170.5,94.5 Z"/></g>
<g><path style="opacity:0.008" fill="#50236d" d="M 386.5,95.5 C 385.475,95.1034 385.308,94.4368 386,93.5C 386.464,94.0944 386.631,94.7611 386.5,95.5 Z"/></g>
<g><path style="opacity:0.008" fill="#b565ce" d="M 102.5,95.5 C 102.833,95.5 103.167,95.5 103.5,95.5C 103.315,96.1701 102.981,96.1701 102.5,95.5 Z"/></g>
<g><path style="opacity:0.016" fill="#351d4a" d="M 144.5,95.5 C 144.5,95.8333 144.5,96.1667 144.5,96.5C 141.833,96.1667 141.833,95.8333 144.5,95.5 Z"/></g>
<g><path style="opacity:0.016" fill="#6b358a" d="M 167.5,96.5 C 167.5,96.1667 167.5,95.8333 167.5,95.5C 168.5,95.5 169.5,95.5 170.5,95.5C 169.791,96.404 168.791,96.7373 167.5,96.5 Z"/></g>
<g><path style="opacity:0.008" fill="#5d287e" d="M 297.5,95.5 C 298.833,96.1667 298.833,96.1667 297.5,95.5 Z"/></g>
<g><path style="opacity:0.008" fill="#974fb2" d="M 362.5,95.5 C 362.103,96.525 361.437,96.6917 360.5,96C 361.094,95.5357 361.761,95.369 362.5,95.5 Z"/></g>
<g><path style="opacity:0.008" fill="#5f2b82" d="M 367.5,96.5 C 367.5,96.1667 367.5,95.8333 367.5,95.5C 370.167,95.8333 370.167,96.1667 367.5,96.5 Z"/></g>
<g><path style="opacity:0.008" fill="#5d287e" d="M 386.5,95.5 C 386.833,95.5 387.167,95.5 387.5,95.5C 387.315,96.1701 386.981,96.1701 386.5,95.5 Z"/></g>
<g><path style="opacity:0.008" fill="#8945a5" d="M 17.5,95.5 C 18.1667,95.5 18.5,95.8333 18.5,96.5C 18.44,97.0431 18.1067,97.3764 17.5,97.5C 16.2267,96.7435 16.2267,96.0768 17.5,95.5 Z"/></g>
<g><path style="opacity:0.008" fill="#b565ce" d="M 101.5,96.5 C 101.833,96.5 102.167,96.5 102.5,96.5C 102.315,97.1701 101.981,97.1701 101.5,96.5 Z"/></g>
<g><path style="opacity:0.008" fill="#431e5d" d="M 144.5,96.5 C 145.552,96.3505 146.552,96.5172 147.5,97C 146.251,97.7401 145.251,97.5735 144.5,96.5 Z"/></g>
<g><path style="opacity:0.016" fill="#60327d" d="M 164.5,96.5 C 165.5,96.5 166.5,96.5 167.5,96.5C 166.5,97.8333 165.5,97.8333 164.5,96.5 Z"/></g>
<g><path style="opacity:0.016" fill="#4e2771" d="M 208.5,97.5 C 213.65,96.3493 218.984,96.1826 224.5,97C 219.177,97.4994 213.844,97.666 208.5,97.5 Z"/></g>
<g><path style="opacity:0.016" fill="#4e2771" d="M 247.5,97.5 C 263.661,96.3385 279.995,96.1718 296.5,97C 280.17,97.4999 263.837,97.6666 247.5,97.5 Z"/></g>
<g><path style="opacity:0.016" fill="#4d266f" d="M 320.5,97.5 C 325.985,96.3483 331.651,96.1816 337.5,97C 331.843,97.4994 326.176,97.6661 320.5,97.5 Z"/></g>
<g><path style="opacity:0.008" fill="#7a3b97" d="M 367.5,96.5 C 366.399,97.5983 365.066,97.765 363.5,97C 364.793,96.51 366.127,96.3433 367.5,96.5 Z"/></g>
<g><path style="opacity:0.016" fill="#4d266f" d="M 388.5,97.5 C 393.985,96.3483 399.651,96.1816 405.5,97C 399.843,97.4994 394.176,97.6661 388.5,97.5 Z"/></g>
<g><path style="opacity:0.016" fill="#4f2773" d="M 445.5,97.5 C 451.319,96.3475 457.319,96.1808 463.5,97C 457.509,97.4995 451.509,97.6662 445.5,97.5 Z"/></g>
<g><path style="opacity:0.016" fill="#4d266f" d="M 477.5,97.5 C 482.985,96.3483 488.651,96.1816 494.5,97C 488.843,97.4994 483.176,97.6661 477.5,97.5 Z"/></g>
<g><path style="opacity:0.999" fill="#a85ca8" d="M 49.5,96.5 C 53.0814,97.2599 56.7481,97.7599 60.5,98C 65.845,104.495 72.5117,108.661 80.5,110.5C 80.5,110.833 80.5,111.167 80.5,111.5C 79.5084,111.328 78.8417,111.662 78.5,112.5C 77.209,112.263 76.209,112.596 75.5,113.5C 71.3164,113.851 67.3164,114.518 63.5,115.5C 61.1667,115.5 58.8333,115.5 56.5,115.5C 51.6095,114.588 46.6095,113.588 41.5,112.5C 39.4907,110.935 37.1573,109.935 34.5,109.5C 32.178,107.336 29.5113,105.669 26.5,104.5C 25.5,103.167 24.5,101.833 23.5,100.5C 32.6411,101.325 41.3077,99.9914 49.5,96.5 Z"/></g>
<g><path style="opacity:0.008" fill="#b565ce" d="M 100.5,97.5 C 100.833,97.5 101.167,97.5 101.5,97.5C 101.315,98.1701 100.981,98.1701 100.5,97.5 Z"/></g>
<g><path style="opacity:0.008" fill="#5d287e" d="M 148.5,97.5 C 149.833,98.1667 149.833,98.1667 148.5,97.5 Z"/></g>
<g><path style="opacity:0.008" fill="#9e54b8" d="M 151.5,98.5 C 154.64,97.3592 157.973,97.1925 161.5,98C 158.183,98.4983 154.85,98.665 151.5,98.5 Z"/></g>
<g><path style="opacity:0.008" fill="#5d287e" d="M 162.5,97.5 C 163.833,98.1667 163.833,98.1667 162.5,97.5 Z"/></g>
<g><path style="opacity:0.008" fill="#b565ce" d="M 20.5,100.5 C 19.8333,99.1667 19.8333,99.1667 20.5,100.5 Z"/></g>
<g><path style="opacity:0.008" fill="#7a3b97" d="M 99.5,98.5 C 99.8333,98.5 100.167,98.5 100.5,98.5C 100.167,101.167 99.8333,101.167 99.5,98.5 Z"/></g>
<g><path style="opacity:0.008" fill="#5d287e" d="M 20.5,100.5 C 21.8333,101.167 21.8333,101.167 20.5,100.5 Z"/></g>
<g><path style="opacity:0.008" fill="#b565ce" d="M 96.5,101.5 C 97.8333,102.167 97.8333,102.167 96.5,101.5 Z"/></g>
<g><path style="opacity:0.008" fill="#b565ce" d="M 95.5,102.5 C 95.8333,102.5 96.1667,102.5 96.5,102.5C 96.3147,103.17 95.9813,103.17 95.5,102.5 Z"/></g>
<g><path style="opacity:0.008" fill="#b565ce" d="M 94.5,103.5 C 94.8333,103.5 95.1667,103.5 95.5,103.5C 95.3147,104.17 94.9813,104.17 94.5,103.5 Z"/></g>
<g><path style="opacity:0.008" fill="#b565ce" d="M 26.5,104.5 C 26.5,104.833 26.5,105.167 26.5,105.5C 25.8299,105.019 25.8299,104.685 26.5,104.5 Z"/></g>
<g><path style="opacity:0.008" fill="#b565ce" d="M 93.5,104.5 C 93.8333,104.5 94.1667,104.5 94.5,104.5C 94.3147,105.17 93.9813,105.17 93.5,104.5 Z"/></g>
<g><path style="opacity:0.008" fill="#b565ce" d="M 26.5,105.5 C 27.8333,106.167 27.8333,106.167 26.5,105.5 Z"/></g>
<g><path style="opacity:0.008" fill="#b565ce" d="M 91.5,106.5 C 91.5,106.167 91.5,105.833 91.5,105.5C 92.1667,105.5 92.8333,105.5 93.5,105.5C 93.1583,106.338 92.4916,106.672 91.5,106.5 Z"/></g>
<g><path style="opacity:0.008" fill="#b565ce" d="M 90.5,106.5 C 90.8333,106.5 91.1667,106.5 91.5,106.5C 91.3147,107.17 90.9813,107.17 90.5,106.5 Z"/></g>
<g><path style="opacity:0.008" fill="#b565ce" d="M 88.5,107.5 C 89.8333,108.167 89.8333,108.167 88.5,107.5 Z"/></g>
<g><path style="opacity:0.008" fill="#b565ce" d="M 87.5,108.5 C 87.8333,108.5 88.1667,108.5 88.5,108.5C 88.3147,109.17 87.9813,109.17 87.5,108.5 Z"/></g>
<g><path style="opacity:0.008" fill="#b565ce" d="M 34.5,109.5 C 34.1034,110.525 33.4368,110.692 32.5,110C 33.0944,109.536 33.7611,109.369 34.5,109.5 Z"/></g>
<g><path style="opacity:0.008" fill="#b565ce" d="M 85.5,109.5 C 86.1667,109.5 86.8333,109.5 87.5,109.5C 86.8333,110.833 86.1667,110.833 85.5,109.5 Z"/></g>
<g><path style="opacity:0.008" fill="#b565ce" d="M 80.5,112.5 C 80.5,112.167 80.5,111.833 80.5,111.5C 83.1667,111.833 83.1667,112.167 80.5,112.5 Z"/></g>
<g><path style="opacity:0.008" fill="#9953b7" d="M 41.5,112.5 C 41.5,112.833 41.5,113.167 41.5,113.5C 38.8333,113.167 38.8333,112.833 41.5,112.5 Z"/></g>
<g><path style="opacity:0.008" fill="#5d3175" d="M 78.5,112.5 C 79.1667,112.5 79.8333,112.5 80.5,112.5C 79.8333,113.833 79.1667,113.833 78.5,112.5 Z"/></g>
<g><path style="opacity:0.008" fill="#974fb2" d="M 41.5,113.5 C 42.2389,113.369 42.9056,113.536 43.5,114C 42.5632,114.692 41.8966,114.525 41.5,113.5 Z"/></g>
<g><path style="opacity:0.016" fill="#7d41a0" d="M 75.5,113.5 C 76.2389,113.369 76.9056,113.536 77.5,114C 76.5632,114.692 75.8966,114.525 75.5,113.5 Z"/></g>
<g><path style="opacity:0.008" fill="#b565ce" d="M 45.5,114.5 C 46.8333,115.167 46.8333,115.167 45.5,114.5 Z"/></g>
<g><path style="opacity:0.008" fill="#b565ce" d="M 73.5,114.5 C 74.8333,115.167 74.8333,115.167 73.5,114.5 Z"/></g>
<g><path style="opacity:0.008" fill="#a65ac0" d="M 56.5,115.5 C 55.0536,116.613 53.3869,116.78 51.5,116C 53.1341,115.506 54.8008,115.34 56.5,115.5 Z"/></g>
<g><path style="opacity:0.008" fill="#a65ac0" d="M 63.5,115.5 C 65.1992,115.34 66.8659,115.506 68.5,116C 66.6131,116.78 64.9464,116.613 63.5,115.5 Z"/></g>
<g><path style="opacity:0.008" fill="#5d287e" d="M 57.5,117.5 C 58.9464,116.387 60.6131,116.22 62.5,117C 60.8659,117.494 59.1992,117.66 57.5,117.5 Z"/></g>
</svg>
