<?xml version="1.0" encoding="UTF-8"?>
<!DOCTYPE svg PUBLIC "-//W3C//DTD SVG 1.1//EN" "http://www.w3.org/Graphics/SVG/1.1/DTD/svg11.dtd">
<svg xmlns="http://www.w3.org/2000/svg" version="1.1" width="150px" height="39px" style="shape-rendering:geometricPrecision; text-rendering:geometricPrecision; image-rendering:optimizeQuality; fill-rule:evenodd; clip-rule:evenodd" xmlns:xlink="http://www.w3.org/1999/xlink">
<g><path style="opacity:0.659" fill="#017c81" d="M 128.5,-0.5 C 132.167,-0.5 135.833,-0.5 139.5,-0.5C 143.833,1.83333 147.167,5.16667 149.5,9.5C 149.5,13.1667 149.5,16.8333 149.5,20.5C 143.057,31.0605 134.39,33.2272 123.5,27C 117.874,20.459 117.04,13.2923 121,5.5C 123.114,2.87922 125.614,0.879222 128.5,-0.5 Z"/></g>
<g><path style="opacity:0.672" fill="#017c81" d="M -0.5,29.5 C -0.5,27.8333 -0.5,26.1667 -0.5,24.5C 1.5273,24.6621 3.5273,24.4955 5.5,24C 6.42797,23.6121 7.09464,22.9454 7.5,22C 5.36744,18.0417 2.70077,14.5417 -0.5,11.5C -0.5,9.5 -0.5,7.5 -0.5,5.5C 2.58079,1.03951 6.91412,-0.627156 12.5,0.5C 12.5,2.16667 12.5,3.83333 12.5,5.5C 9.09215,4.82801 6.42548,5.82801 4.5,8.5C 7.81726,11.8055 10.6506,15.4722 13,19.5C 13.5391,23.5901 12.0391,26.7568 8.5,29C 5.51838,29.498 2.51838,29.6646 -0.5,29.5 Z"/></g>
<g><path style="opacity:0.753" fill="#017c81" d="M 13.5,0.5 C 17.8333,0.5 22.1667,0.5 26.5,0.5C 26.5,2.16667 26.5,3.83333 26.5,5.5C 25.1667,5.5 23.8333,5.5 22.5,5.5C 22.5,13.5 22.5,21.5 22.5,29.5C 20.8333,29.5 19.1667,29.5 17.5,29.5C 17.5,21.5 17.5,13.5 17.5,5.5C 16.1667,5.5 14.8333,5.5 13.5,5.5C 13.5,3.83333 13.5,2.16667 13.5,0.5 Z"/></g>
<g><path style="opacity:0.703" fill="#017c81" d="M 31.5,0.5 C 35.2568,0.0708258 38.7568,0.737492 42,2.5C 42.4998,11.4938 42.6664,20.4938 42.5,29.5C 40.8333,29.5 39.1667,29.5 37.5,29.5C 37.5,25.5 37.5,21.5 37.5,17.5C 36.5,17.5 35.5,17.5 34.5,17.5C 34.5,21.5 34.5,25.5 34.5,29.5C 32.2341,29.8588 30.4007,29.1922 29,27.5C 28.7624,21.0237 28.5958,14.6904 28.5,8.5C 28.3996,5.37636 29.3996,2.70969 31.5,0.5 Z M 34.5,5.5 C 35.5,5.5 36.5,5.5 37.5,5.5C 37.5,7.83333 37.5,10.1667 37.5,12.5C 36.5,12.5 35.5,12.5 34.5,12.5C 34.5,10.1667 34.5,7.83333 34.5,5.5 Z"/></g>
<g><path style="opacity:0.71" fill="#017c81" d="M 45.5,0.5 C 57.6653,-2.16848 62.1653,2.49818 59,14.5C 58.3645,15.9663 57.5312,17.2997 56.5,18.5C 58.1167,22.014 59.1167,25.6807 59.5,29.5C 57.712,29.7852 56.0453,29.4519 54.5,28.5C 53.2347,25.2043 52.0681,21.871 51,18.5C 50.5014,22.1516 50.3347,25.8183 50.5,29.5C 48.8333,29.5 47.1667,29.5 45.5,29.5C 45.5,19.8333 45.5,10.1667 45.5,0.5 Z M 50.5,5.5 C 51.5,5.5 52.5,5.5 53.5,5.5C 53.5,7.83333 53.5,10.1667 53.5,12.5C 52.5,12.5 51.5,12.5 50.5,12.5C 50.5,10.1667 50.5,7.83333 50.5,5.5 Z"/></g>
<g><path style="opacity:0.741" fill="#017c81" d="M 61.5,0.5 C 65.8333,0.5 70.1667,0.5 74.5,0.5C 74.5,2.16667 74.5,3.83333 74.5,5.5C 73.1667,5.5 71.8333,5.5 70.5,5.5C 70.5,13.5 70.5,21.5 70.5,29.5C 68.8333,29.5 67.1667,29.5 65.5,29.5C 65.5,21.5 65.5,13.5 65.5,5.5C 64.1667,5.5 62.8333,5.5 61.5,5.5C 61.5,3.83333 61.5,2.16667 61.5,0.5 Z"/></g>
<g><path style="opacity:0.675" fill="#017c81" d="M 77.5,0.5 C 79.1667,0.5 80.8333,0.5 82.5,0.5C 82.5,8.5 82.5,16.5 82.5,24.5C 83.5,24.5 84.5,24.5 85.5,24.5C 85.5,16.5 85.5,8.5 85.5,0.5C 87.1667,0.5 88.8333,0.5 90.5,0.5C 90.6664,9.50617 90.4998,18.5062 90,27.5C 86.8169,29.5234 83.3169,30.0234 79.5,29C 78.2986,28.0975 77.4652,26.9308 77,25.5C 76.6771,17.1476 76.8438,8.81431 77.5,0.5 Z"/></g>
<g><path style="opacity:0.692" fill="#017c81" d="M 93.5,0.5 C 106.955,-1.61623 111.122,3.7171 106,16.5C 103.619,17.435 101.119,17.7683 98.5,17.5C 98.5,21.5 98.5,25.5 98.5,29.5C 96.8333,29.5 95.1667,29.5 93.5,29.5C 93.5,19.8333 93.5,10.1667 93.5,0.5 Z M 99.5,5.5 C 100.5,5.5 101.5,5.5 102.5,5.5C 102.5,7.83333 102.5,10.1667 102.5,12.5C 101.5,12.5 100.5,12.5 99.5,12.5C 99.5,10.1667 99.5,7.83333 99.5,5.5 Z"/></g>
<g><path style="opacity:0.723" fill="#eea232" d="M 144.5,18.5 C 143.662,18.8417 143.328,19.5084 143.5,20.5C 142.5,22.1667 141.167,23.5 139.5,24.5C 138.508,24.3284 137.842,24.6618 137.5,25.5C 135.167,25.5 132.833,25.5 130.5,25.5C 129.71,24.5987 128.71,23.9321 127.5,23.5C 127.5,22.8333 127.167,22.5 126.5,22.5C 126.5,21.8333 126.167,21.5 125.5,21.5C 125.5,20.8333 125.167,20.5 124.5,20.5C 124.672,19.5084 124.338,18.8417 123.5,18.5C 123.5,16.1667 123.5,13.8333 123.5,11.5C 124.338,11.1583 124.672,10.4916 124.5,9.5C 125.5,7.83333 126.833,6.5 128.5,5.5C 139.792,2.4568 145.125,6.79013 144.5,18.5 Z"/></g>
<g><path style="opacity:1" fill="#fbca15" d="M 129.5,7.5 C 140.747,6.23971 144.08,10.7397 139.5,21C 130.406,24.2346 126.239,21.0679 127,11.5C 127.662,10.0161 128.496,8.68275 129.5,7.5 Z"/></g>
<g><path style="opacity:1" fill="#fdfbf8" d="M 132.5,13.5 C 133.5,13.5 134.5,13.5 135.5,13.5C 135.5,14.5 135.5,15.5 135.5,16.5C 134.5,16.5 133.5,16.5 132.5,16.5C 132.5,15.5 132.5,14.5 132.5,13.5 Z"/></g>
<g><path style="opacity:0.699" fill="#017b80" d="M 109.5,14.5 C 111.833,14.5 114.167,14.5 116.5,14.5C 116.844,19.2548 114.844,20.5881 110.5,18.5C 109.571,17.3112 109.238,15.9778 109.5,14.5 Z"/></g>
<g><path style="opacity:0.542" fill="#808080" d="M -0.5,33.5 C 6.32347,33.4529 6.99014,35.1195 1.5,38.5C 0.833333,38.5 0.166667,38.5 -0.5,38.5C -0.5,36.8333 -0.5,35.1667 -0.5,33.5 Z"/></g>
<g><path style="opacity:0.531" fill="#818181" d="M 13.5,38.5 C 11.5,38.5 9.5,38.5 7.5,38.5C 7.5,36.8333 7.5,35.1667 7.5,33.5C 9.19919,33.3398 10.8659,33.5065 12.5,34C 12.9121,35.5639 13.2454,37.0639 13.5,38.5 Z"/></g>
<g><path style="opacity:0.575" fill="#818181" d="M 22.5,38.5 C 20.5,38.5 18.5,38.5 16.5,38.5C 16.5,36.8333 16.5,35.1667 16.5,33.5C 20.938,32.4251 22.938,34.0917 22.5,38.5 Z"/></g>
<g><path style="opacity:0.568" fill="#808180" d="M 29.5,38.5 C 28.5,38.5 27.5,38.5 26.5,38.5C 25.3336,36.834 25.3336,35.1673 26.5,33.5C 27.1924,34.0253 27.6924,34.6919 28,35.5C 28.3076,34.6919 28.8076,34.0253 29.5,33.5C 30.6664,35.1673 30.6664,36.834 29.5,38.5 Z"/></g>
<g><path style="opacity:0.465" fill="#808080" d="M 39.5,38.5 C 37.8333,38.5 36.1667,38.5 34.5,38.5C 32.9134,34.0817 34.58,32.415 39.5,33.5C 39.5,35.1667 39.5,36.8333 39.5,38.5 Z"/></g>
<g><path style="opacity:0.459" fill="#808080" d="M 58.5,38.5 C 57.5,38.5 56.5,38.5 55.5,38.5C 54.9478,36.6693 54.9478,35.0026 55.5,33.5C 57.0207,33.8797 58.6874,34.0464 60.5,34C 59.4178,35.3297 58.7512,36.8297 58.5,38.5 Z"/></g>
<g><path style="opacity:0.53" fill="#818181" d="M 68.5,38.5 C 66.5,38.5 64.5,38.5 62.5,38.5C 62.5,36.8333 62.5,35.1667 62.5,33.5C 64.5,33.5 66.5,33.5 68.5,33.5C 68.5,35.1667 68.5,36.8333 68.5,38.5 Z"/></g>
<g><path style="opacity:0.552" fill="#818181" d="M 78.5,38.5 C 76.5,38.5 74.5,38.5 72.5,38.5C 72.5,36.8333 72.5,35.1667 72.5,33.5C 74.3307,34.0522 75.9974,34.0522 77.5,33.5C 78.4519,35.0453 78.7852,36.712 78.5,38.5 Z"/></g>
<g><path style="opacity:0.491" fill="#818181" d="M 87.5,38.5 C 85.5,38.5 83.5,38.5 81.5,38.5C 81.5,36.8333 81.5,35.1667 81.5,33.5C 83.5,33.5 85.5,33.5 87.5,33.5C 87.5,35.1667 87.5,36.8333 87.5,38.5 Z"/></g>
<g><path style="opacity:0.554" fill="#808080" d="M 106.5,38.5 C 104.5,38.5 102.5,38.5 100.5,38.5C 100.215,36.712 100.548,35.0453 101.5,33.5C 103.003,34.0522 104.669,34.0522 106.5,33.5C 106.5,35.1667 106.5,36.8333 106.5,38.5 Z"/></g>
<g><path style="opacity:0.45" fill="#818181" d="M 115.5,38.5 C 113.5,38.5 111.5,38.5 109.5,38.5C 109.5,36.8333 109.5,35.1667 109.5,33.5C 111.5,33.5 113.5,33.5 115.5,33.5C 115.5,35.1667 115.5,36.8333 115.5,38.5 Z"/></g>
<g><path style="opacity:0.491" fill="#808180" d="M 122.5,38.5 C 121.833,38.5 121.167,38.5 120.5,38.5C 120.52,36.857 119.853,35.5237 118.5,34.5C 120.5,33.1667 122.5,33.1667 124.5,34.5C 123.147,35.5237 122.48,36.857 122.5,38.5 Z"/></g>
<g><path style="opacity:0.469" fill="#818181" d="M 131.5,38.5 C 130.5,38.5 129.5,38.5 128.5,38.5C 128.579,37.0695 128.246,35.7362 127.5,34.5C 129.5,33.1667 131.5,33.1667 133.5,34.5C 132.147,35.5237 131.48,36.857 131.5,38.5 Z"/></g>
<g><path style="opacity:0.504" fill="#808080" d="M 141.5,38.5 C 139.833,38.5 138.167,38.5 136.5,38.5C 136.5,36.8333 136.5,35.1667 136.5,33.5C 137.5,33.5 138.5,33.5 139.5,33.5C 139.392,35.5138 140.058,37.1805 141.5,38.5 Z"/></g>
<g><path style="opacity:0.453" fill="#808080" d="M 149.5,33.5 C 149.5,35.1667 149.5,36.8333 149.5,38.5C 147.833,38.5 146.167,38.5 144.5,38.5C 144.5,36.8333 144.5,35.1667 144.5,33.5C 146.167,33.5 147.833,33.5 149.5,33.5 Z"/></g>
</svg>
