<svg width="425" height="143" viewBox="0 0 425 143" fill="none" xmlns="http://www.w3.org/2000/svg">
<path d="M424.96 100.236C420.801 107.502 413.413 112.791 403.118 112.791C389.795 112.791 384.547 104.192 384.547 88.1657V53.2063H375.948V53.0851L406.954 26.2398V51.2282H422.739V53.2063H406.954V81.9086C406.954 96.1992 409.982 101.487 418.258 101.487C420.721 101.487 422.618 101.124 424.879 100.115L425 100.236H424.96Z" fill="#6C60BB"/>
<path d="M32.0153 107.301H39.7668V109.44H0.928565V107.301H9.2049V20.7496L0 13.5236H41.2202L32.0153 20.7093V107.301ZM86.841 107.301V109.44H55.4313L33.065 63.5003L60.1145 20.5882L50.9096 13.5236H83.3286L48.6083 42.3066L81.6733 107.301H86.841Z" fill="#6C60BB"/>
<path d="M275.066 107.252H282.818V109.391H243.979V107.252H252.256V20.7008L243.051 13.4747H284.271L275.066 20.6604V107.252ZM329.892 107.252V109.391H298.482L276.116 63.4515L303.165 20.5393L293.96 13.4747H326.379L291.659 42.2578L324.724 107.252H329.892Z" fill="#6C60BB"/>
<path d="M81.4715 90.7493H86.4777V57.0009L80.7852 52.4796L106.422 44.1636V90.7897H111.428V92.2834H81.5119V90.7897L81.4715 90.7493ZM85.3473 32.2144C85.3473 26.1187 89.3442 21.9607 96.4093 21.9607C103.474 21.9607 107.471 26.1187 107.471 32.2144C107.471 38.3101 103.474 42.5892 96.4093 42.5892C89.3442 42.5892 85.3473 38.4312 85.3473 32.2144Z" fill="#6C60BB"/>
<path d="M250.47 42.1451L242.759 48.6849L217.769 107.704L204.082 142.664L182.2 124.861L215.71 107.058L188.539 48.6849L180.707 42.1451H221.119L213.408 48.6849L226.206 83.8866L237.026 48.6849L228.144 42.1451H250.47Z" fill="#6C60BB"/>
<path d="M373.404 81.6036V83.2184H347.848V77.4053C343.044 81.4825 337.634 84.268 332.022 84.268C325.401 84.268 320.88 80.4733 320.88 74.0547C320.88 64.6487 330.892 58.4319 347.848 56.5749C347.848 45.3523 343.367 39.7007 335.575 39.7007C330.973 39.7007 327.824 40.9118 324.352 43.5761L323.827 43.0513C330.771 35.3005 338.32 31.1021 348.535 31.1021C361.413 31.1021 368.236 38.4493 368.236 53.2647V81.5633H373.364L373.404 81.6036ZM347.848 75.9924V57.9071C341.712 59.6429 339.37 63.5184 339.37 68.9278C339.37 73.7317 341.429 76.2749 345.507 76.2749C346.112 76.2749 346.92 76.1942 347.848 75.952V75.9924Z" fill="#6C60BB"/>
<path d="M155.07 106.574C151.437 114.93 144.977 120.986 135.974 120.986C124.307 120.986 119.745 111.095 119.745 92.6871V52.52H112.195V52.3585L139.325 21.5167V50.219H153.133V52.4796H139.325V85.4207C139.325 101.81 141.949 107.906 149.216 107.906C151.356 107.906 153.052 107.502 154.99 106.332L155.07 106.493V106.574Z" fill="#6C60BB"/>
<path d="M195.887 84.9766C191.93 93.333 184.905 99.3883 175.095 99.3883C162.418 99.3883 157.412 89.4979 157.412 71.0897V30.963H149.216V30.8015L178.688 0V28.7023H193.707V30.963H178.688V63.904C178.688 80.2938 181.554 86.3895 189.467 86.3895C191.809 86.3895 193.626 85.9858 195.766 84.8151L195.887 84.9766Z" fill="#6C60BB"/>
<path d="M373.404 95.5309H329.883V91.5748L373.404 88.1838V95.5309Z" fill="#6C60BB"/>
</svg>
